<?xml version="1.0" standalone="no"?>
<!DOCTYPE svg PUBLIC "-//W3C//DTD SVG 1.1//EN" "http://www.w3.org/Graphics/SVG/1.1/DTD/svg11.dtd" >
<svg xmlns="http://www.w3.org/2000/svg">
<metadata></metadata>
<defs>
<font id="hitchcockregular" horiz-adv-x="2019" >
<font-face units-per-em="2048" ascent="1638" descent="-410" />
<missing-glyph horiz-adv-x="837" />
<glyph horiz-adv-x="0" />
<glyph unicode="&#xd;" horiz-adv-x="1024" />
<glyph horiz-adv-x="4173" d="M0 721l8 49l303 -25l279 82l237 33l418 33l352 123l230 155l950 -41l98 -106l33 -172l-90 -25h-172v41h164l65 17l-24 139l-98 90l-893 33l-246 -164l-352 -123l-418 -49l-246 -25l-279 -81zM27 -150v-260l850 201l528 96l229 23l207 -141l242 -37l252 -23l92 129l70 49 l69 117l68 72l92 106l115 178l-11 107l58 12l45 82v107l-92 94l-150 47l-102 -23l-58 -47l11 -131l127 -35l69 -36l92 -70l-12 -59l-47 34l-80 37l-57 47l-92 82l-183 47l-92 -47l-12 -94l104 -72l207 -106l80 -129l-104 94l-103 59l-127 70l-241 49l-58 -106l185 -109 l172 -129l12 -166l-47 82l-80 144l-57 69l-173 60l-47 36l-67 -84l67 -81l117 -95l68 -106l-41 31l-350 63l-80 12l-195 82l-115 35l-196 -47zM1772 1438v69l139 -10l67 10l58 25l-58 -119zM1806 1200l35 60h80l127 71l-70 23l58 178l92 24l620 -83l13 -82l286 -60l23 47 l999 -143l-22 -141l-35 -154l-309 59l-23 -34l-528 69l-35 -47l-47 -141l-57 -84l-115 -23l-23 35l103 25l92 47v166l-125 47l-92 82l-621 37zM2118 1604l57 34l872 -141l885 -106v47l137 -107v-96l-999 143l-322 95zM2761 1354v37l274 -25l12 -35zM4037 999l32 236l105 -10 l-35 -131l-12 -95h-90z" />
<glyph horiz-adv-x="4173" d="M0 721l8 49l303 -25l279 82l237 33l418 33l352 123l230 155l950 -41l98 -106l33 -172l-90 -25h-172v41h164l65 17l-24 139l-98 90l-893 33l-246 -164l-352 -123l-418 -49l-246 -25l-279 -81zM27 -150v-260l850 201l528 96l229 23l207 -141l242 -37l252 -23l92 129l70 49 l69 117l68 72l92 106l115 178l-11 107l58 12l45 82v107l-92 94l-150 47l-102 -23l-58 -47l11 -131l127 -35l69 -36l92 -70l-12 -59l-47 34l-80 37l-57 47l-92 82l-183 47l-92 -47l-12 -94l104 -72l207 -106l80 -129l-104 94l-103 59l-127 70l-241 49l-58 -106l185 -109 l172 -129l12 -166l-47 82l-80 144l-57 69l-173 60l-47 36l-67 -84l67 -81l117 -95l68 -106l-41 31l-350 63l-80 12l-195 82l-115 35l-196 -47zM1772 1438v69l139 -10l67 10l58 25l-58 -119zM1806 1200l35 60h80l127 71l-70 23l58 178l92 24l620 -83l13 -82l286 -60l23 47 l999 -143l-22 -141l-35 -154l-309 59l-23 -34l-528 69l-35 -47l-47 -141l-57 -84l-115 -23l-23 35l103 25l92 47v166l-125 47l-92 82l-621 37zM2118 1604l57 34l872 -141l885 -106v47l137 -107v-96l-999 143l-322 95zM2761 1354v37l274 -25l12 -35zM4037 999l32 236l105 -10 l-35 -131l-12 -95h-90z" />
<glyph horiz-adv-x="4173" d="M0 721l8 49l303 -25l279 82l237 33l418 33l352 123l230 155l950 -41l98 -106l33 -172l-90 -25h-172v41h164l65 17l-24 139l-98 90l-893 33l-246 -164l-352 -123l-418 -49l-246 -25l-279 -81zM27 -150v-260l850 201l528 96l229 23l207 -141l242 -37l252 -23l92 129l70 49 l69 117l68 72l92 106l115 178l-11 107l58 12l45 82v107l-92 94l-150 47l-102 -23l-58 -47l11 -131l127 -35l69 -36l92 -70l-12 -59l-47 34l-80 37l-57 47l-92 82l-183 47l-92 -47l-12 -94l104 -72l207 -106l80 -129l-104 94l-103 59l-127 70l-241 49l-58 -106l185 -109 l172 -129l12 -166l-47 82l-80 144l-57 69l-173 60l-47 36l-67 -84l67 -81l117 -95l68 -106l-41 31l-350 63l-80 12l-195 82l-115 35l-196 -47zM1772 1438v69l139 -10l67 10l58 25l-58 -119zM1806 1200l35 60h80l127 71l-70 23l58 178l92 24l620 -83l13 -82l286 -60l23 47 l999 -143l-22 -141l-35 -154l-309 59l-23 -34l-528 69l-35 -47l-47 -141l-57 -84l-115 -23l-23 35l103 25l92 47v166l-125 47l-92 82l-621 37zM2118 1604l57 34l872 -141l885 -106v47l137 -107v-96l-999 143l-322 95zM2761 1354v37l274 -25l12 -35zM4037 999l32 236l105 -10 l-35 -131l-12 -95h-90z" />
<glyph d="M0 -338l10 23l21 53l10 55l8 41l2 -100l21 -58l14 -41l-25 -45l-30 4l-31 23v45zM57 -106l523 454l-35 25zM512 516l55 66l60 -52l32 39l-57 33l39 39l41 -43l33 37l-39 18l39 56l47 -25l33 29l-47 24l47 58l59 -60l33 29l-49 35l63 65l45 -67l31 28l-31 43l39 47l51 -67 l33 29l-70 67l76 33l62 -59l24 20l-57 55l80 70l209 -166l-695 -578l-149 117zM834 1071v150l61 77l131 17l78 -35l43 -43l96 -88l123 -105l78 -104l112 -96l89 -139l-27 -105l-86 -78l-150 17l-69 53l35 51l43 -51l131 -19l61 62l8 78l-104 141l-182 156l-78 104l-158 141 l-104 25l-62 -25l-35 -71v-78l35 -113l-35 -35zM1356 1133l342 262l147 131l-61 69l53 43l182 -192l-51 -62l-70 72l-114 -72l-217 -190l-166 -115z" />
<glyph horiz-adv-x="4173" d="M0 721l8 49l303 -25l279 82l237 33l418 33l352 123l230 155l950 -41l98 -106l33 -172l-90 -25h-172v41h164l65 17l-24 139l-98 90l-893 33l-246 -164l-352 -123l-418 -49l-246 -25l-279 -81zM27 -150v-260l850 201l528 96l229 23l207 -141l242 -37l252 -23l92 129l70 49 l69 117l68 72l92 106l115 178l-11 107l58 12l45 82v107l-92 94l-150 47l-102 -23l-58 -47l11 -131l127 -35l69 -36l92 -70l-12 -59l-47 34l-80 37l-57 47l-92 82l-183 47l-92 -47l-12 -94l104 -72l207 -106l80 -129l-104 94l-103 59l-127 70l-241 49l-58 -106l185 -109 l172 -129l12 -166l-47 82l-80 144l-57 69l-173 60l-47 36l-67 -84l67 -81l117 -95l68 -106l-41 31l-350 63l-80 12l-195 82l-115 35l-196 -47zM1772 1438v69l139 -10l67 10l58 25l-58 -119zM1806 1200l35 60h80l127 71l-70 23l58 178l92 24l620 -83l13 -82l286 -60l23 47 l999 -143l-22 -141l-35 -154l-309 59l-23 -34l-528 69l-35 -47l-47 -141l-57 -84l-115 -23l-23 35l103 25l92 47v166l-125 47l-92 82l-621 37zM2118 1604l57 34l872 -141l885 -106v47l137 -107v-96l-999 143l-322 95zM2761 1354v37l274 -25l12 -35zM4037 999l32 236l105 -10 l-35 -131l-12 -95h-90z" />
<glyph d="M0 -338l10 23l21 53l10 55l8 41l2 -100l21 -58l14 -41l-25 -45l-30 4l-31 23v45zM57 -106l523 454l-35 25zM512 516l55 66l60 -52l32 39l-57 33l39 39l41 -43l33 37l-39 18l39 56l47 -25l33 29l-47 24l47 58l59 -60l33 29l-49 35l63 65l45 -67l31 28l-31 43l39 47l51 -67 l33 29l-70 67l76 33l62 -59l24 20l-57 55l80 70l209 -166l-695 -578l-149 117zM834 1071v150l61 77l131 17l78 -35l43 -43l96 -88l123 -105l78 -104l112 -96l89 -139l-27 -105l-86 -78l-150 17l-69 53l35 51l43 -51l131 -19l61 62l8 78l-104 141l-182 156l-78 104l-158 141 l-104 25l-62 -25l-35 -71v-78l35 -113l-35 -35zM1356 1133l342 262l147 131l-61 69l53 43l182 -192l-51 -62l-70 72l-114 -72l-217 -190l-166 -115z" />
<glyph horiz-adv-x="4173" d="M0 721l8 49l303 -25l279 82l237 33l418 33l352 123l230 155l950 -41l98 -106l33 -172l-90 -25h-172v41h164l65 17l-24 139l-98 90l-893 33l-246 -164l-352 -123l-418 -49l-246 -25l-279 -81zM27 -150v-260l850 201l528 96l229 23l207 -141l242 -37l252 -23l92 129l70 49 l69 117l68 72l92 106l115 178l-11 107l58 12l45 82v107l-92 94l-150 47l-102 -23l-58 -47l11 -131l127 -35l69 -36l92 -70l-12 -59l-47 34l-80 37l-57 47l-92 82l-183 47l-92 -47l-12 -94l104 -72l207 -106l80 -129l-104 94l-103 59l-127 70l-241 49l-58 -106l185 -109 l172 -129l12 -166l-47 82l-80 144l-57 69l-173 60l-47 36l-67 -84l67 -81l117 -95l68 -106l-41 31l-350 63l-80 12l-195 82l-115 35l-196 -47zM1772 1438v69l139 -10l67 10l58 25l-58 -119zM1806 1200l35 60h80l127 71l-70 23l58 178l92 24l620 -83l13 -82l286 -60l23 47 l999 -143l-22 -141l-35 -154l-309 59l-23 -34l-528 69l-35 -47l-47 -141l-57 -84l-115 -23l-23 35l103 25l92 47v166l-125 47l-92 82l-621 37zM2118 1604l57 34l872 -141l885 -106v47l137 -107v-96l-999 143l-322 95zM2761 1354v37l274 -25l12 -35zM4037 999l32 236l105 -10 l-35 -131l-12 -95h-90z" />
<glyph d="M0 -338l10 23l21 53l10 55l8 41l2 -100l21 -58l14 -41l-25 -45l-30 4l-31 23v45zM57 -106l523 454l-35 25zM512 516l55 66l60 -52l32 39l-57 33l39 39l41 -43l33 37l-39 18l39 56l47 -25l33 29l-47 24l47 58l59 -60l33 29l-49 35l63 65l45 -67l31 28l-31 43l39 47l51 -67 l33 29l-70 67l76 33l62 -59l24 20l-57 55l80 70l209 -166l-695 -578l-149 117zM834 1071v150l61 77l131 17l78 -35l43 -43l96 -88l123 -105l78 -104l112 -96l89 -139l-27 -105l-86 -78l-150 17l-69 53l35 51l43 -51l131 -19l61 62l8 78l-104 141l-182 156l-78 104l-158 141 l-104 25l-62 -25l-35 -71v-78l35 -113l-35 -35zM1356 1133l342 262l147 131l-61 69l53 43l182 -192l-51 -62l-70 72l-114 -72l-217 -190l-166 -115z" />
<glyph d="M0 -338l10 23l21 53l10 55l8 41l2 -100l21 -58l14 -41l-25 -45l-30 4l-31 23v45zM57 -106l523 454l-35 25zM512 516l55 66l60 -52l32 39l-57 33l39 39l41 -43l33 37l-39 18l39 56l47 -25l33 29l-47 24l47 58l59 -60l33 29l-49 35l63 65l45 -67l31 28l-31 43l39 47l51 -67 l33 29l-70 67l76 33l62 -59l24 20l-57 55l80 70l209 -166l-695 -578l-149 117zM834 1071v150l61 77l131 17l78 -35l43 -43l96 -88l123 -105l78 -104l112 -96l89 -139l-27 -105l-86 -78l-150 17l-69 53l35 51l43 -51l131 -19l61 62l8 78l-104 141l-182 156l-78 104l-158 141 l-104 25l-62 -25l-35 -71v-78l35 -113l-35 -35zM1356 1133l342 262l147 131l-61 69l53 43l182 -192l-51 -62l-70 72l-114 -72l-217 -190l-166 -115z" />
<glyph d="M0 -338l10 23l21 53l10 55l8 41l2 -100l21 -58l14 -41l-25 -45l-30 4l-31 23v45zM57 -106l523 454l-35 25zM512 516l55 66l60 -52l32 39l-57 33l39 39l41 -43l33 37l-39 18l39 56l47 -25l33 29l-47 24l47 58l59 -60l33 29l-49 35l63 65l45 -67l31 28l-31 43l39 47l51 -67 l33 29l-70 67l76 33l62 -59l24 20l-57 55l80 70l209 -166l-695 -578l-149 117zM834 1071v150l61 77l131 17l78 -35l43 -43l96 -88l123 -105l78 -104l112 -96l89 -139l-27 -105l-86 -78l-150 17l-69 53l35 51l43 -51l131 -19l61 62l8 78l-104 141l-182 156l-78 104l-158 141 l-104 25l-62 -25l-35 -71v-78l35 -113l-35 -35zM1356 1133l342 262l147 131l-61 69l53 43l182 -192l-51 -62l-70 72l-114 -72l-217 -190l-166 -115z" />
<glyph unicode=" "  horiz-adv-x="837" />
<glyph unicode="&#x09;" horiz-adv-x="837" />
<glyph unicode="&#xa0;" horiz-adv-x="837" />
<glyph unicode="!" horiz-adv-x="593" d="M0 1628l27 -1485l401 -20l-27 1515zM33 39l416 -82l-35 -367l-346 41z" />
<glyph unicode="&#x22;" horiz-adv-x="2531" d="M0 37l4 8l19 2l43 -4l49 -8l32 -4l33 -6v-5l13 25l139 8l184 17l113 71l43 148l26 168l72 129l-16 16l-23 -27l-35 -20l-24 12l-23 27l-22 14l-25 21l-22 33l-25 32l-10 27l-35 6l-6 33l12 41l29 39l41 47l51 33h59l41 -9l39 -24l35 -53l18 -41v-45l29 -48l-4 -8l72 86 l131 96l47 -12l57 29l88 80l51 59l35 53l-51 97l-27 77l-61 70l-18 62l34 14l-4 16l-6 15l-6 14l-8 10l-19 8l-22 11l-23 4l-12 4l-4 8l2 6l12 4l19 -4l4 2l-6 15l-13 22l-6 12l-10 25l-6 16v8l6 7l8 -4l8 -7l2 -14l9 -22l8 -19l10 -16l14 -4l-10 18l-6 18l-4 25l-2 29v14 l6 10l10 4l8 -4l-2 -14v-31l7 -41l12 -20l10 -4l-10 18l-4 23v32l2 19l4 10l6 2l8 -8l-4 -25v-20l6 -27l4 -12v12l4 21v12v8l5 4l8 -4l2 -10v-18l-2 -13v-10l12 -10l10 -6l13 -15l2 -22l8 -19v-12v-8l4 -12l16 8l35 -70l70 -96l96 -123l16 -78l-43 -131l-139 -201l-35 -88 l62 -61l86 -70l96 -61l150 -35l69 -8l35 -70l8 -53l115 10l139 17l131 18l70 8h96l61 -26l78 -113v-70l-34 -53l61 -8l16 -45l-43 -17l-78 -18h-88l-43 18l17 27l-27 16l35 54l8 18l-24 17l-340 -54l-80 -8l-86 -27l24 -61l80 -96l62 -51l59 -62l53 -35l88 -8l70 27l27 -19 v27l34 8l43 -16l54 -11h59l53 -16l43 -45l-34 -25l-43 -26l-35 26l-54 9l-43 8l-18 -43l-43 -19l-61 -24l-113 -19l-193 62l-174 96l-123 86l-69 80l-53 -53l-9 61l-131 96l-139 70l-192 96l-156 17l-88 -140l-78 -77l-107 -43l-217 8l-139 8l-53 -8l4 28l-6 -2l-25 -6 l-16 -2l-25 -6l-10 2l2 8l12 4l4 5l13 6l-23 4l-16 -6l-10 -4h-13l-2 4l4 6l17 2l16 4l-14 2h-25l-12 -2l-10 2l6 8l4 2l2 2l12 2l-24 2h-15l-8 4l-4 7l8 4l11 2h-15z" />
<glyph unicode="#" horiz-adv-x="1548" d="M201 334l28 262l256 14l-6 228l-264 -19l31 264l225 11l-12 442h182l16 -432l248 12l-10 377h182l15 -367l346 17v-242l-338 -22l10 -238l311 16v-243l-303 -21l21 -520l-199 41l-14 467l-240 -16l16 -451l-198 41l-10 397zM668 850l8 -232l244 13l-7 235z" />
<glyph unicode="$" horiz-adv-x="1511" d="M0 1079q-4 18 25.5 67.5t105.5 104t201 98.5t313 50l-2 225l207 14l2 -245l44 -7q44 -6 109.5 -22t140.5 -47t137.5 -81t100 -121t27.5 -169h-246q-41 72 -94 118t-102 71.5t-83 36.5l-34 10l4 -373q63 -14 123.5 -25.5t114.5 -25.5q104 -25 163.5 -82.5t89 -124t38 -128 t8.5 -93.5q0 -20 -2 -55t-17.5 -76t-47.5 -83t-91 -78t-149.5 -62.5t-223.5 -32.5l2 -353l-207 29l-2 326q-4 0 -56 9t-138 39t-175 85t-166 148t-112 227l252 10q43 -104 109.5 -167t129 -96.5t108.5 -43.5l46 -11l-2 496q-47 10 -94 19.5t-96 23.5q-127 35 -209 78 t-133 93t-78 106.5t-41 117.5zM338 1061q2 -39 27.5 -69.5t67.5 -55.5t97.5 -45.5t118.5 -36.5l-2 344q-72 4 -129 5t-99 -11t-63.5 -43t-17.5 -88zM856 604l4 -459q45 4 89 15.5t80 34t58.5 57.5t22.5 88q0 63 -18.5 108.5t-52 75t-80 49t-103.5 31.5z" />
<glyph unicode="%" horiz-adv-x="1794" d="M365 1057q0 -43 28.5 -84t69.5 -72t86 -47t75.5 -10t78 21.5t91.5 42t77.5 63.5t39.5 86q4 47 7.5 106.5t-12 112.5t-57.5 91t-130 44q-117 8 -187.5 -31t-107.5 -96t-48 -120.5t-11 -106.5zM432 -8l178 -101l944 1422l-163 127zM498 1104q2 29 2 65q0 37 4 57.5t19.5 29 t46 7.5t81.5 -7.5t77 -21.5t38 -39t14 -55.5t8 -68.5q4 -37 -4 -55.5t-29.5 -23.5t-57 -2t-87 9.5t-75 19.5t-31.5 34.5t-6 50.5zM1143 219q0 -43 28.5 -84t70.5 -71.5t86 -47t75 -10.5t78 21.5t92 42t79 63.5t38 86q6 47 9 106.5t-12.5 113t-57.5 91t-130 43.5 q-117 6 -187.5 -31.5t-108.5 -96t-49 -121t-11 -105.5zM1292 266.5q2 28.5 2 65.5t4.5 57.5t19.5 28.5t45 7t81 -7t76.5 -21.5t38 -39t14.5 -55.5t8 -69t-2 -55t-29.5 -23t-58.5 -2t-88 9t-74.5 19.5t-31 35t-5.5 50z" />
<glyph unicode="&#x26;" horiz-adv-x="2826" d="M-4 799l606 -262q14 -51 57 -96.5t89.5 -78t81.5 -50.5l34 -19l38 -15q38 -16 96.5 -30.5t131 -17.5t142.5 22l284 -129l52 -195l-1532 576zM31 831l1394 580l33 -16zM168 813q0 16 23.5 28.5t58.5 12.5t59.5 -12.5t24.5 -28.5t-24.5 -28.5t-59.5 -12.5t-58.5 12.5 t-23.5 28.5zM250 813l16 66zM375 893q0 18 26.5 30.5t63.5 12.5q35 0 61.5 -12.5t26.5 -30.5t-26.5 -31.5t-61.5 -13.5q-37 0 -63.5 13t-26.5 32zM465 893l6 -68zM592 632.5q18 -100.5 97 -177t210 -123.5t303 -51.5t343 34.5t318.5 110t259 169t165.5 211q2 6 6 14 l-365 -135l-141 -27v-20l-88 -10l-14 67l102 17l8 -23l111 27l358 151l62 -71l198 106l-110 131l-88 -74q2 63 -23 127l453 -180l-461 195q-57 117 -208 191.5t-374 80.5h-63l-111 47l-41 -16l86 -33q-158 -12 -308.5 -56t-279.5 -114t-225 -160t-145 -192 q-53 -115 -35 -215.5zM1200 834q16 35 51 64.5t80 52t98.5 34.5t106.5 10t94 -16t65.5 -37.5t30 -55.5t-11 -67t-51.5 -64.5t-80 -52t-98 -35t-107 -10.5q-106 4 -158.5 54.5t-19.5 122.5zM1362 794.5q-8 14.5 2 33t39 32.5q27 14 48.5 20.5t47.5 -8.5q29 -14 33 -35.5 t-33 -33.5q-18 -6 -38.5 -14.5t-39 -11.5t-35 0t-24.5 17.5zM1546 141l51 -196l1192 743l-6 213z" />
<glyph unicode="'" horiz-adv-x="407" d="M94 1231l164 31l-10 372l-154 31v-434z" />
<glyph unicode="(" horiz-adv-x="2826" d="M-4 799l606 -262q14 -51 57 -96.5t89.5 -78t81.5 -50.5l34 -19l38 -15q38 -16 96.5 -30.5t131 -17.5t142.5 22l284 -129l52 -195l-1532 576zM31 831l1394 580l33 -16zM168 813q0 16 23.5 28.5t58.5 12.5t59.5 -12.5t24.5 -28.5t-24.5 -28.5t-59.5 -12.5t-58.5 12.5 t-23.5 28.5zM250 813l16 66zM375 893q0 18 26.5 30.5t63.5 12.5q35 0 61.5 -12.5t26.5 -30.5t-26.5 -31.5t-61.5 -13.5q-37 0 -63.5 13t-26.5 32zM465 893l6 -68zM592 632.5q18 -100.5 97 -177t210 -123.5t303 -51.5t343 34.5t318.5 110t259 169t165.5 211q2 6 6 14 l-365 -135l-141 -27v-20l-88 -10l-14 67l102 17l8 -23l111 27l358 151l62 -71l198 106l-110 131l-88 -74q2 63 -23 127l453 -180l-461 195q-57 117 -208 191.5t-374 80.5h-63l-111 47l-41 -16l86 -33q-158 -12 -308.5 -56t-279.5 -114t-225 -160t-145 -192 q-53 -115 -35 -215.5zM1200 834q16 35 51 64.5t80 52t98.5 34.5t106.5 10t94 -16t65.5 -37.5t30 -55.5t-11 -67t-51.5 -64.5t-80 -52t-98 -35t-107 -10.5q-106 4 -158.5 54.5t-19.5 122.5zM1362 794.5q-8 14.5 2 33t39 32.5q27 14 48.5 20.5t47.5 -8.5q29 -14 33 -35.5 t-33 -33.5q-18 -6 -38.5 -14.5t-39 -11.5t-35 0t-24.5 17.5zM1546 141l51 -196l1192 743l-6 213z" />
<glyph unicode=")" horiz-adv-x="4173" d="M0 721l8 49l303 -25l279 82l237 33l418 33l352 123l230 155l950 -41l98 -106l33 -172l-90 -25h-172v41h164l65 17l-24 139l-98 90l-893 33l-246 -164l-352 -123l-418 -49l-246 -25l-279 -81zM27 -150v-260l850 201l528 96l229 23l207 -141l242 -37l252 -23l92 129l70 49 l69 117l68 72l92 106l115 178l-11 107l58 12l45 82v107l-92 94l-150 47l-102 -23l-58 -47l11 -131l127 -35l69 -36l92 -70l-12 -59l-47 34l-80 37l-57 47l-92 82l-183 47l-92 -47l-12 -94l104 -72l207 -106l80 -129l-104 94l-103 59l-127 70l-241 49l-58 -106l185 -109 l172 -129l12 -166l-47 82l-80 144l-57 69l-173 60l-47 36l-67 -84l67 -81l117 -95l68 -106l-41 31l-350 63l-80 12l-195 82l-115 35l-196 -47zM1772 1438v69l139 -10l67 10l58 25l-58 -119zM1806 1200l35 60h80l127 71l-70 23l58 178l92 24l620 -83l13 -82l286 -60l23 47 l999 -143l-22 -141l-35 -154l-309 59l-23 -34l-528 69l-35 -47l-47 -141l-57 -84l-115 -23l-23 35l103 25l92 47v166l-125 47l-92 82l-621 37zM2118 1604l57 34l872 -141l885 -106v47l137 -107v-96l-999 143l-322 95zM2761 1354v37l274 -25l12 -35zM4037 999l32 236l105 -10 l-35 -131l-12 -95h-90z" />
<glyph unicode="*" horiz-adv-x="2826" d="M-4 799l606 -262q14 -51 57 -96.5t89.5 -78t81.5 -50.5l34 -19l38 -15q38 -16 96.5 -30.5t131 -17.5t142.5 22l284 -129l52 -195l-1532 576zM31 831l1394 580l33 -16zM168 813q0 16 23.5 28.5t58.5 12.5t59.5 -12.5t24.5 -28.5t-24.5 -28.5t-59.5 -12.5t-58.5 12.5 t-23.5 28.5zM250 813l16 66zM375 893q0 18 26.5 30.5t63.5 12.5q35 0 61.5 -12.5t26.5 -30.5t-26.5 -31.5t-61.5 -13.5q-37 0 -63.5 13t-26.5 32zM465 893l6 -68zM592 632.5q18 -100.5 97 -177t210 -123.5t303 -51.5t343 34.5t318.5 110t259 169t165.5 211q2 6 6 14 l-365 -135l-141 -27v-20l-88 -10l-14 67l102 17l8 -23l111 27l358 151l62 -71l198 106l-110 131l-88 -74q2 63 -23 127l453 -180l-461 195q-57 117 -208 191.5t-374 80.5h-63l-111 47l-41 -16l86 -33q-158 -12 -308.5 -56t-279.5 -114t-225 -160t-145 -192 q-53 -115 -35 -215.5zM1200 834q16 35 51 64.5t80 52t98.5 34.5t106.5 10t94 -16t65.5 -37.5t30 -55.5t-11 -67t-51.5 -64.5t-80 -52t-98 -35t-107 -10.5q-106 4 -158.5 54.5t-19.5 122.5zM1362 794.5q-8 14.5 2 33t39 32.5q27 14 48.5 20.5t47.5 -8.5q29 -14 33 -35.5 t-33 -33.5q-18 -6 -38.5 -14.5t-39 -11.5t-35 0t-24.5 17.5zM1546 141l51 -196l1192 743l-6 213z" />
<glyph unicode="+" horiz-adv-x="1282" d="M113 692v182h430l-19 390l185 10l34 -414l383 -12l29 -160l-367 -16l23 -457l-217 16l-35 457z" />
<glyph unicode="," horiz-adv-x="890" d="M168 -248l47 -53l178 53l111 201l65 201l-200 59l34 -213l-69 -172z" />
<glyph unicode="-" d="M0 -338l10 23l21 53l10 55l8 41l2 -100l21 -58l14 -41l-25 -45l-30 4l-31 23v45zM57 -106l523 454l-35 25zM512 516l55 66l60 -52l32 39l-57 33l39 39l41 -43l33 37l-39 18l39 56l47 -25l33 29l-47 24l47 58l59 -60l33 29l-49 35l63 65l45 -67l31 28l-31 43l39 47l51 -67 l33 29l-70 67l76 33l62 -59l24 20l-57 55l80 70l209 -166l-695 -578l-149 117zM834 1071v150l61 77l131 17l78 -35l43 -43l96 -88l123 -105l78 -104l112 -96l89 -139l-27 -105l-86 -78l-150 17l-69 53l35 51l43 -51l131 -19l61 62l8 78l-104 141l-182 156l-78 104l-158 141 l-104 25l-62 -25l-35 -71v-78l35 -113l-35 -35zM1356 1133l342 262l147 131l-61 69l53 43l182 -192l-51 -62l-70 72l-114 -72l-217 -190l-166 -115z" />
<glyph unicode="." horiz-adv-x="407" d="M35 -33v-278l213 20l-17 240z" />
<glyph unicode="/" d="M0 -338l10 23l21 53l10 55l8 41l2 -100l21 -58l14 -41l-25 -45l-30 4l-31 23v45zM57 -106l523 454l-35 25zM512 516l55 66l60 -52l32 39l-57 33l39 39l41 -43l33 37l-39 18l39 56l47 -25l33 29l-47 24l47 58l59 -60l33 29l-49 35l63 65l45 -67l31 28l-31 43l39 47l51 -67 l33 29l-70 67l76 33l62 -59l24 20l-57 55l80 70l209 -166l-695 -578l-149 117zM834 1071v150l61 77l131 17l78 -35l43 -43l96 -88l123 -105l78 -104l112 -96l89 -139l-27 -105l-86 -78l-150 17l-69 53l35 51l43 -51l131 -19l61 62l8 78l-104 141l-182 156l-78 104l-158 141 l-104 25l-62 -25l-35 -71v-78l35 -113l-35 -35zM1356 1133l342 262l147 131l-61 69l53 43l182 -192l-51 -62l-70 72l-114 -72l-217 -190l-166 -115z" />
<glyph unicode="0" horiz-adv-x="2078" d="M1 494.5q-1 134.5 13 259.5q23 188 120 354t253 288t362.5 187t448.5 53q190 -10 329.5 -71.5t238 -154.5t159 -205.5t95 -224.5t47 -214t12.5 -172t-9.5 -173.5t-43 -216t-100 -225t-182.5 -200.5t-289 -141.5t-419 -47.5q-246 4 -421 58.5t-293.5 141.5t-187 201.5 t-100.5 241.5t-33 261.5zM315 594q-8 -211 41.5 -356.5t137.5 -235.5t207.5 -130t254.5 -40t284 39t272.5 120t204.5 206t81 297t-29.5 313t-100.5 242.5t-190.5 160t-299.5 66.5q-172 6 -327 -20.5t-271.5 -103.5t-187 -212t-77.5 -346z" />
<glyph unicode="1" horiz-adv-x="657" d="M0 1206l283 396l299 36l75 -1990l-338 -58l-18 1559z" />
<glyph unicode="2" horiz-adv-x="1716" d="M0 1288l254 -215q131 139 235.5 214t178 110t112.5 41l39 6q80 0 182.5 -16.5t191.5 -56.5t150.5 -108.5t61.5 -170.5q0 -68 -56.5 -134.5t-145.5 -132t-200.5 -129t-222 -125t-209 -122t-161.5 -117.5l-41 -40t-91.5 -101.5t-93.5 -138.5t-47 -150l-20 -312l1599 60v213 l-1247 -19q-35 51 -21.5 103.5t52.5 96.5t87 79t80.5 52.5t34.5 19.5q80 39 184.5 90t216 111.5t219.5 129t194 146.5t141 164t59 178q8 139 -58.5 250.5t-180 192.5t-260 127t-299.5 54l-72 -3q-72 -3 -197 -33.5t-292 -102.5t-357 -211z" />
<glyph unicode="3" horiz-adv-x="1513" d="M0 1362h940l-479 -295l18 -295q63 0 147.5 -11t172.5 -36t172 -63.5t148.5 -94t102.5 -129t33 -166.5q-4 -84 -27.5 -151.5t-75.5 -115.5t-140 -74.5t-219 -26.5l-45 1q-46 1 -112.5 10t-143 29.5t-140 57.5t-102.5 94.5t-29 139.5l-203 -130q37 -129 109 -217t158 -145 t176 -89t163.5 -46.5t121.5 -16.5l47 -2q111 0 237.5 50.5t234 141.5t178 220t70.5 289l-3 39q-3 39 -22.5 100.5t-60.5 136t-116.5 146t-193.5 132t-288 93.5l629 479l19 221l-1477 -18v-258z" />
<glyph unicode="4" horiz-adv-x="1390" d="M0 436v281l922 921l225 -18l18 -883h207l19 -264h-226v-883l-243 19l-21 809zM283 662h581l37 657z" />
<glyph unicode="5" horiz-adv-x="1679" d="M0 -23l184 187q39 -98 105.5 -165t138.5 -103.5t139.5 -56t107.5 -23.5t44 -4q152 -6 279.5 21.5t220 90t140.5 158.5t42 229q-4 88 -10.5 162t-23.5 133.5t-51 105.5t-96.5 78.5t-157.5 51t-233 22.5l-42 -3t-113.5 -24.5t-164.5 -70.5t-196 -141h-239v1013l1605 -73 v-314l-1329 92l-37 -368q8 33 57.5 54.5t117 35.5t143.5 22.5t140.5 11.5t107.5 4l43 1q215 0 351 -66.5t216 -177t113.5 -254t39.5 -295.5q4 -102 -32.5 -196.5t-105 -176t-163 -147t-202 -112t-225 -70t-232.5 -19.5q-4 0 -50 5.5t-126 26t-170 61.5t-180 113.5 t-156 180.5z" />
<glyph unicode="6" horiz-adv-x="1513" d="M2 236q-4 70 5 155.5t29.5 180t50.5 188.5t63.5 180t71.5 156.5t75 117.5l35 33t135 89.5t280.5 134t471.5 167.5l73 -258q-272 -76 -444 -151.5t-270.5 -136t-133.5 -98.5l-36 -38q-2 -4 -28 -43t-59.5 -110.5t-56 -154.5t-19.5 -173t52 -166q76 96 169 148.5t174 77 t108 26.5l83 6q125 0 247 -33.5t218.5 -99t156.5 -162t60 -221.5q0 -104 -57 -189t-165.5 -145.5t-266.5 -93.5t-358 -33q-201 0 -327 61.5t-198.5 157t-102.5 209t-36 218.5zM352 51q0 -41 44 -87t113 -84t153.5 -62.5t168.5 -24.5q82 0 165 24.5t148.5 64.5t106.5 89 t41 99q0 49 -30.5 101t-91 95t-150.5 71t-207 28q-172 -76 -266 -134.5t-137 -98.5t-50 -60z" />
<glyph unicode="7" horiz-adv-x="1642" d="M0 1638h1606l36 -368q-84 -106 -164.5 -216t-154.5 -212.5t-137.5 -192.5t-109.5 -157.5t-72 -106.5l-27 -39l-25 -38q-24 -38 -62 -100.5t-82 -142t-83 -163.5t-66.5 -166t-31.5 -146h-387q223 500 351 738l128 239l33 57q34 56 102 154.5t168 233.5t233 295h-1218z" />
<glyph unicode="8" horiz-adv-x="1517" d="M6 1198q-18 92 18.5 174t122.5 142.5t215.5 94t294.5 29.5q229 -8 386 -35.5t254.5 -87t139.5 -155.5t42 -240q0 -2 -4.5 -40t-29 -97t-78.5 -117.5t-152.5 -105.5t-251.5 -60q160 -29 264 -96t162.5 -146t87 -157t35 -124t6.5 -50q4 -109 -28 -206t-130 -171 t-276.5 -117t-465.5 -43q-125 0 -206.5 30t-134 81t-80 118.5t-41 144.5t-19.5 158t-16 157q0 2 1 25.5t18.5 67.5t59.5 97t126 113.5t217 117.5q-131 12 -225.5 67.5t-154 125.5t-95 141.5t-49 115.5t-13.5 48zM274 1198q0 -57 40 -109.5t109 -91.5t159 -62.5t190 -23.5 t187.5 3.5t152 20.5t101 56t36.5 111t-29.5 126t-96 94t-172 65.5t-257.5 39.5q-158 -29 -242.5 -67.5t-124.5 -74.5t-43 -49zM313 184q0 -57 40 -109t107.5 -92t158 -63.5t190.5 -23.5t188 3t152.5 21.5t101.5 57t37 110.5t-30.5 126t-96 94t-172 65.5t-256.5 40.5 q-158 -29 -242.5 -69t-124.5 -76t-46 -61z" />
<glyph unicode="9" horiz-adv-x="1513" d="M0 1178q0 104 57.5 189t166 145.5t266 93t358.5 32.5q133 0 233.5 -28.5t173 -76.5t120.5 -112.5t77 -136.5t43 -146.5t18.5 -144t-5 -155.5t-30 -180.5t-50 -188.5t-63.5 -180t-72 -158t-74 -117l-35 -32q-35 -33 -135.5 -89.5t-281.5 -134t-472 -168.5l-74 258 q272 76 445.5 152t271.5 136.5t134 97.5l36 38q2 4 27.5 43t59.5 111t56.5 155t19.5 173t-52 166q-61 -76 -135 -126.5t-143 -77t-129 -38.5t-94 -14t-36 -2q-125 0 -247 33.5t-219 99t-156.5 162t-59.5 221.5zM221 1159q0 -49 31 -101t91 -95t150.5 -71t206.5 -28 q174 76 268.5 134.5t137.5 98.5t50 61l7 20q0 41 -44 87t-113.5 83.5t-155.5 62.5t-168 25q-84 0 -166 -25t-147.5 -64.5t-106.5 -89t-41 -98.5z" />
<glyph unicode=":" horiz-adv-x="436" d="M70 750l186 20l-12 238l-174 20v-278zM82 315v277l174 -21l14 -237z" />
<glyph unicode=";" horiz-adv-x="4173" d="M0 721l8 49l303 -25l279 82l237 33l418 33l352 123l230 155l950 -41l98 -106l33 -172l-90 -25h-172v41h164l65 17l-24 139l-98 90l-893 33l-246 -164l-352 -123l-418 -49l-246 -25l-279 -81zM27 -150v-260l850 201l528 96l229 23l207 -141l242 -37l252 -23l92 129l70 49 l69 117l68 72l92 106l115 178l-11 107l58 12l45 82v107l-92 94l-150 47l-102 -23l-58 -47l11 -131l127 -35l69 -36l92 -70l-12 -59l-47 34l-80 37l-57 47l-92 82l-183 47l-92 -47l-12 -94l104 -72l207 -106l80 -129l-104 94l-103 59l-127 70l-241 49l-58 -106l185 -109 l172 -129l12 -166l-47 82l-80 144l-57 69l-173 60l-47 36l-67 -84l67 -81l117 -95l68 -106l-41 31l-350 63l-80 12l-195 82l-115 35l-196 -47zM1772 1438v69l139 -10l67 10l58 25l-58 -119zM1806 1200l35 60h80l127 71l-70 23l58 178l92 24l620 -83l13 -82l286 -60l23 47 l999 -143l-22 -141l-35 -154l-309 59l-23 -34l-528 69l-35 -47l-47 -141l-57 -84l-115 -23l-23 35l103 25l92 47v166l-125 47l-92 82l-621 37zM2118 1604l57 34l872 -141l885 -106v47l137 -107v-96l-999 143l-322 95zM2761 1354v37l274 -25l12 -35zM4037 999l32 236l105 -10 l-35 -131l-12 -95h-90z" />
<glyph unicode="&#x3c;" horiz-adv-x="4173" d="M0 721l8 49l303 -25l279 82l237 33l418 33l352 123l230 155l950 -41l98 -106l33 -172l-90 -25h-172v41h164l65 17l-24 139l-98 90l-893 33l-246 -164l-352 -123l-418 -49l-246 -25l-279 -81zM27 -150v-260l850 201l528 96l229 23l207 -141l242 -37l252 -23l92 129l70 49 l69 117l68 72l92 106l115 178l-11 107l58 12l45 82v107l-92 94l-150 47l-102 -23l-58 -47l11 -131l127 -35l69 -36l92 -70l-12 -59l-47 34l-80 37l-57 47l-92 82l-183 47l-92 -47l-12 -94l104 -72l207 -106l80 -129l-104 94l-103 59l-127 70l-241 49l-58 -106l185 -109 l172 -129l12 -166l-47 82l-80 144l-57 69l-173 60l-47 36l-67 -84l67 -81l117 -95l68 -106l-41 31l-350 63l-80 12l-195 82l-115 35l-196 -47zM1772 1438v69l139 -10l67 10l58 25l-58 -119zM1806 1200l35 60h80l127 71l-70 23l58 178l92 24l620 -83l13 -82l286 -60l23 47 l999 -143l-22 -141l-35 -154l-309 59l-23 -34l-528 69l-35 -47l-47 -141l-57 -84l-115 -23l-23 35l103 25l92 47v166l-125 47l-92 82l-621 37zM2118 1604l57 34l872 -141l885 -106v47l137 -107v-96l-999 143l-322 95zM2761 1354v37l274 -25l12 -35zM4037 999l32 236l105 -10 l-35 -131l-12 -95h-90z" />
<glyph unicode="=" horiz-adv-x="4173" d="M0 721l8 49l303 -25l279 82l237 33l418 33l352 123l230 155l950 -41l98 -106l33 -172l-90 -25h-172v41h164l65 17l-24 139l-98 90l-893 33l-246 -164l-352 -123l-418 -49l-246 -25l-279 -81zM27 -150v-260l850 201l528 96l229 23l207 -141l242 -37l252 -23l92 129l70 49 l69 117l68 72l92 106l115 178l-11 107l58 12l45 82v107l-92 94l-150 47l-102 -23l-58 -47l11 -131l127 -35l69 -36l92 -70l-12 -59l-47 34l-80 37l-57 47l-92 82l-183 47l-92 -47l-12 -94l104 -72l207 -106l80 -129l-104 94l-103 59l-127 70l-241 49l-58 -106l185 -109 l172 -129l12 -166l-47 82l-80 144l-57 69l-173 60l-47 36l-67 -84l67 -81l117 -95l68 -106l-41 31l-350 63l-80 12l-195 82l-115 35l-196 -47zM1772 1438v69l139 -10l67 10l58 25l-58 -119zM1806 1200l35 60h80l127 71l-70 23l58 178l92 24l620 -83l13 -82l286 -60l23 47 l999 -143l-22 -141l-35 -154l-309 59l-23 -34l-528 69l-35 -47l-47 -141l-57 -84l-115 -23l-23 35l103 25l92 47v166l-125 47l-92 82l-621 37zM2118 1604l57 34l872 -141l885 -106v47l137 -107v-96l-999 143l-322 95zM2761 1354v37l274 -25l12 -35zM4037 999l32 236l105 -10 l-35 -131l-12 -95h-90z" />
<glyph unicode="&#x3e;" horiz-adv-x="4173" d="M0 721l8 49l303 -25l279 82l237 33l418 33l352 123l230 155l950 -41l98 -106l33 -172l-90 -25h-172v41h164l65 17l-24 139l-98 90l-893 33l-246 -164l-352 -123l-418 -49l-246 -25l-279 -81zM27 -150v-260l850 201l528 96l229 23l207 -141l242 -37l252 -23l92 129l70 49 l69 117l68 72l92 106l115 178l-11 107l58 12l45 82v107l-92 94l-150 47l-102 -23l-58 -47l11 -131l127 -35l69 -36l92 -70l-12 -59l-47 34l-80 37l-57 47l-92 82l-183 47l-92 -47l-12 -94l104 -72l207 -106l80 -129l-104 94l-103 59l-127 70l-241 49l-58 -106l185 -109 l172 -129l12 -166l-47 82l-80 144l-57 69l-173 60l-47 36l-67 -84l67 -81l117 -95l68 -106l-41 31l-350 63l-80 12l-195 82l-115 35l-196 -47zM1772 1438v69l139 -10l67 10l58 25l-58 -119zM1806 1200l35 60h80l127 71l-70 23l58 178l92 24l620 -83l13 -82l286 -60l23 47 l999 -143l-22 -141l-35 -154l-309 59l-23 -34l-528 69l-35 -47l-47 -141l-57 -84l-115 -23l-23 35l103 25l92 47v166l-125 47l-92 82l-621 37zM2118 1604l57 34l872 -141l885 -106v47l137 -107v-96l-999 143l-322 95zM2761 1354v37l274 -25l12 -35zM4037 999l32 236l105 -10 l-35 -131l-12 -95h-90z" />
<glyph unicode="?" horiz-adv-x="1562" d="M0 1202l272 -10q53 102 138.5 158.5t166 82t139.5 29.5l58 4q49 0 120 -3t137.5 -18t112.5 -50t46 -99q0 -96 -58.5 -142t-155.5 -69.5t-224 -37t-265 -43.5q-2 0 -35.5 -15.5t-76.5 -75t-71 -171t-20 -306t78 -481.5l363 16q-68 229 -82 385t5.5 244t53 134t60 58.5 t29.5 12.5q74 14 155.5 51t159.5 86t148.5 105.5t124 107.5t85 92t31.5 60q0 18 -3 50t-21.5 68.5t-59.5 74.5t-115.5 68.5t-191.5 50t-285 19.5l-51 -2t-130 -14t-175 -37.5t-187.5 -75t-166 -124t-109.5 -183.5zM377 -150h348l23 -260h-371v260z" />
<glyph unicode="@" horiz-adv-x="2045" d="M10 604q70 485 278 743.5t570 286.5q119 8 247 -6t249 -56t229.5 -115t191.5 -177t134 -244.5t55 -320.5t-28.5 -284.5t-85 -153t-115 -51.5t-119.5 22.5t-99 68.5t-51 84q6 -82 -30.5 -131t-91 -72.5t-111.5 -30.5t-94 -6t-41 1q-145 14 -255 28.5t-182.5 59.5 t-106.5 135t-28 256t27.5 269.5t59.5 164t94.5 86t132.5 31.5l36 -1q37 -1 106 -17.5t168 -59.5t224 -125l-37 166l185 -18q14 -193 29.5 -315t29.5 -190.5t23 -93.5l10 -26q20 -41 48 -44t50.5 23.5t33.5 75.5t-3 111q-10 41 -15.5 113.5t-23.5 156.5t-58 173t-117 163 t-199 125t-306 59.5t-312 -39t-212 -128t-132.5 -182t-73 -201t-32.5 -184.5t-12 -130q-4 -47 4 -130t33.5 -180t68.5 -196.5t107.5 -178.5t154 -126t203.5 -37q4 0 50.5 5.5t125 16.5t166.5 29.5t175 47t147 67.5l-19 -276q-152 -29 -283.5 -40.5t-228 -15.5t-151.5 -2 l-55 2q-78 4 -170.5 37t-181.5 91.5t-169 143.5t-136 196.5t-79.5 247.5t-1.5 298zM748 770q0 -166 68.5 -239.5t207.5 -73.5q70 0 116 5t73.5 22.5t39 50t11.5 88.5q0 55 -3.5 105t-25 88t-66.5 60.5t-127 22.5q-111 0 -171 10.5t-87.5 7t-31.5 -34t-4 -112.5z" />
<glyph unicode="A" horiz-adv-x="2013" d="M0 -410l582 2007l383 41l987 -2019l-305 -29l-387 748l-701 82l-242 -830h-317zM633 662l553 -76l-350 684z" />
<glyph unicode="B" horiz-adv-x="1593" d="M0 -406v2042q70 2 136 2q267 0 462 -26q244 -32 402.5 -85.5t246.5 -118.5t129 -121t50 -94l8 -38q0 -4 -4.5 -43t-35 -101.5t-99 -122t-197.5 -102.5t-332 -43q211 -39 347 -116.5t210 -163.5t107.5 -170t40 -134t6.5 -55q0 -127 -72 -216t-191.5 -146t-273.5 -89 t-317.5 -46.5t-325.5 -15.5h-64q-125 0 -233 3zM311 -174q264 10 435.5 44t263.5 77t135 85t50 68.5t7 28.5t-7 35t-50 86t-135 105.5t-263.5 95.5t-435.5 55v-680zM332 885q209 4 344 30.5t207.5 60.5t106.5 69.5t40 57t6 23.5t-6 23.5t-40 57.5t-106.5 71t-207.5 63.5 t-344 34.5v-491z" />
<glyph unicode="C" horiz-adv-x="2009" d="M0 651q0 131 47 256t129 234.5t193.5 201t241.5 157t272.5 102t283.5 36.5q4 0 61.5 -2t155 -17t205 -47t212 -90.5t173.5 -148.5l-180 -264q-143 86 -272 129t-225.5 60.5t-153.5 17.5h-58q-172 -10 -302 -73.5t-219 -154t-136 -192.5t-53 -190q-1 -17 -1 -35 q0 -46 7 -100q10 -76 37.5 -156t76 -157t122 -139.5t175 -103.5t236.5 -47h57t141.5 10.5t179.5 38t172 84t118 146.5l278 -252q-76 -76 -177 -132t-207.5 -96t-209 -66t-183.5 -41t-131 -20l-50 -6q-45 -4 -88 -4q-114 0 -214 27q-138 37 -251 109.5t-200 177t-145.5 226.5 t-88 256t-29.5 265z" />
<glyph unicode="D" horiz-adv-x="1673" d="M0 1608q197 32 363 32q113 0 211 -15q244 -36 412.5 -128t278 -222t170 -264t89 -254t34 -190.5t5.5 -74.5t-4.5 -61.5t-30 -154t-82.5 -204t-164.5 -211t-273.5 -173.5t-409 -92q-70 -6 -147 -7q-190 0 -423 38zM362 1260l41 -1311q229 12 377 66.5t227.5 123t116.5 138 t42 112.5t5 47q0 2 -3 56.5t-18 145.5t-47 192.5t-89.5 198.5t-143.5 165t-212 90q-41 7 -86 8q-95 0 -210 -32z" />
<glyph unicode="E" horiz-adv-x="1810" d="M0 -410v2048l1708 -28l57 -312h-1341v-634l1116 -15l-14 -282l-1047 -41v-369l1272 -14l-29 -353h-1722z" />
<glyph unicode="F" horiz-adv-x="1601" d="M0 -395l371 -15v1010l1009 14v314l-1009 -15l14 383h1223l14 342h-1622v-2033z" />
<glyph unicode="G" horiz-adv-x="2029" d="M0 680v-43q0 -248 64 -439q69 -208 199 -346.5t315 -203.5q160 -57 350 -57q29 0 59 1l48 4q48 5 124 17t168 36.5t179 65.5t160 101.5t108 146.5l-15 -328l115 -14l129 686l-571 15v-187l284 15q-29 -53 -96.5 -90t-153.5 -62t-178 -37t-169 -18t-126 -7l-49 -2 q-106 0 -192 38t-153 100.5t-115 141.5t-79.5 160t-46 157.5t-14.5 134.5q0 86 32 188t111.5 193.5t218 157t353.5 75.5l43 1h13q39 0 95 -5q66 -6 146 -21.5t152.5 -47t130 -84t77.5 -130.5l230 215q-53 100 -143.5 171t-194 119t-209 76t-190.5 42t-139 18l-54 4 q-21 1 -42 1q-95 0 -192 -15q-118 -18 -230 -64.5t-210 -121t-173 -182t-120 -251t-49 -325.5z" />
<glyph unicode="H" horiz-adv-x="1898" d="M0 -410v2034l416 14l14 -831l930 14v817l387 -14l-14 -2034h-373v889l-973 29l14 -918h-401z" />
<glyph unicode="I" horiz-adv-x="587" d="M0 1624l410 14l28 -2048l-409 29z" />
<glyph unicode="J" horiz-adv-x="1222" d="M0 373l342 -15q-2 -42 -2 -80q0 -119 24 -191q31 -95 74 -139t80 -52l37 -7q2 0 17.5 3.5t39 24t47 65.5t39.5 126q13 71 13 179v28l-15 1323h385l-28 -1323q-4 -219 -59.5 -359t-128 -215t-148.5 -108.5t-124 -38t-52 -4.5l-41 6q-41 5 -102.5 27.5t-132 70.5t-131 135 t-99.5 219q-35 120 -35 290v35z" />
<glyph unicode="K" horiz-adv-x="1554" d="M0 -381l328 -14l43 739l297 270l313 -1024h313l-397 1223l567 641l-284 156l-809 -854l26 839l-383 43z" />
<glyph unicode="L" horiz-adv-x="1402" d="M0 -381l14 2019l342 -14l15 -1663h1050v-371z" />
<glyph unicode="M" horiz-adv-x="2195" d="M0 -381l324 14l-15 1262l588 -1276h295l532 1221l113 -1235l225 -15l-69 1964l-226 15l-700 -1559l-772 1614l-281 14z" />
<glyph unicode="N" horiz-adv-x="1677" d="M0 -410l348 15l-41 1337l737 -1323l488 -14l-84 2019l-236 14l15 -1740l-908 1726l-305 -14z" />
<glyph unicode="O" horiz-adv-x="2570" d="M0 559q0 63 39 169t112.5 226.5t181 244.5t245 222.5t301.5 159.5q154 57 329 57h23q256 -4 446.5 -55t327.5 -132t225 -187.5t139.5 -222t72 -232.5t20.5 -223q0 -109 -31 -225.5t-100.5 -228.5t-181 -212t-275.5 -175t-382 -117q-199 -38 -452 -38h-49 q-162 2 -299 49.5t-246.5 124t-193.5 176t-139.5 207t-84 214t-28.5 198.5zM354 554q22 -104 78.5 -198t140.5 -177t172.5 -146.5t169 -104.5t134.5 -51q76 -16 170 -19q19 -1 38 0q76 0 155 9q99 12 197.5 41t182.5 77t147.5 116.5t94.5 158.5q53 158 57 289v28 q-1 115 -29 209q-32 106 -95.5 186.5t-144.5 138.5t-173.5 96t-182.5 59q-88 18 -189 28q-56 6 -113 6q-46 0 -94 -4q-106 -8 -210 -38.5t-196.5 -93t-169 -161t-125.5 -241.5q-23 -66 -23 -131q0 -39 8 -77z" />
<glyph unicode="P" horiz-adv-x="1605" d="M0 1573q332 63 580 64h11q240 0 406 -41q170 -42 282 -112.5t173 -149.5t90 -150.5t35 -115.5t6 -46q0 -4 -9 -59.5t-68.5 -137.5t-192.5 -153.5t-380 -110.5q-134 -21 -307 -21q-147 0 -323 15v-965l-289 15zM317 1339l13 -495q209 -31 365 -30q53 0 100 3 q184 14 285.5 55t148.5 92.5t56 87t9 40.5q0 4 -6 39.5t-52 87t-146 92.5t-290 55q-48 4 -104 4q-161 0 -379 -31z" />
<glyph unicode="Q" horiz-adv-x="2093" d="M0 506q0 125 43 260t121 263t184.5 240.5t234.5 196.5t271 132q125 41 255 41q19 0 38 -1q170 -8 297 -63t218 -143.5t150.5 -201t93 -234.5t47 -245.5t13.5 -232.5q0 -147 -70.5 -273t-193.5 -225l264 -321l-151 -109l-279 324q-137 -70 -302 -107.5t-347 -37.5 q-442 0 -664.5 178t-222.5 559zM236 818q-5 -38 -5 -78q0 -70 17 -148q23 -109 83 -203t144 -170t185.5 -131t208 -86t211.5 -37q21 -1 41 -1q82 0 155 20q43 10 80 25.5t71 31.5l-198 231l149 138l203 -246q97 121 97 313q0 125 -42 281q-41 158 -117.5 288t-175 217 t-213.5 123q-63 19 -126 19q-53 0 -107 -14q-78 -20 -164 -53t-168 -80.5t-151.5 -111t-115.5 -145t-62 -183.5z" />
<glyph unicode="R" horiz-adv-x="1615" d="M0 1593q298 45 522 45h36q236 -4 397 -43t265.5 -101t160 -130t80 -129t27.5 -99t3 -40q-2 -84 -38 -146.5t-95.5 -108.5t-139 -77t-167.5 -51q98 -59 169.5 -123t92.5 -129l13 -51q13 -50 36.5 -156.5t53.5 -271t63 -392.5l-265 27q-14 215 -41.5 358.5t-55 229.5 t-47.5 123l-21 37q-25 33 -72 71.5t-108.5 78.5t-132 79t-140.5 76h-29q-29 0 -71.5 1t-94 3t-98.5 8l29 -1077l-318 26zM332 930q222 -43 374 -43q22 0 42 1q162 7 249.5 43t126.5 85t44.5 84t5.5 37t-8.5 36.5t-49.5 82t-128 80.5q-88 34 -244 36h-10q-154 0 -388 -55z " />
<glyph unicode="S" horiz-adv-x="2093" d="M0 1188q-1 3 -1 7q-1 18 17 54q20 43 69.5 95.5t132.5 107.5t205 98q123 43 285 69q121 19 268 19q51 0 105 -2q2 0 53.5 -4t137.5 -17t185 -40t198.5 -72t178.5 -113t123 -164q35 -76 35 -169q0 -26 -3 -53h-344q-72 123 -166.5 192.5t-179.5 102t-144 39.5l-59 8 q-135 6 -251 14q-52 4 -97 4q-56 0 -102 -6q-83 -10 -129 -54q-41 -39 -41 -121q0 -11 1 -22q4 -66 57.5 -117t139.5 -90t195.5 -68.5t226 -54t233.5 -47t213 -45t166 -67.5t117 -101.5t74.5 -120t42 -123t18.5 -109.5t4 -81t-4 -84t-28.5 -113.5t-78 -123t-151.5 -112.5 t-248.5 -82t-372.5 -32q-2 0 -49 2t-130 14.5t-183.5 40t-209 78t-205.5 128t-175 190.5t-117 266l357 15q55 -133 139 -220.5t171 -134.5t168 -68.5t127 -25.5t50 -4q63 0 155.5 4t178.5 30.5t146.5 84t60.5 164.5q0 104 -35 171.5t-97.5 110.5t-147.5 66.5t-187.5 42 t-216 37t-232.5 51.5q-178 49 -293.5 110.5t-187.5 131t-110 148.5t-58 165z" />
<glyph unicode="T" horiz-adv-x="2256" d="M0 1610l29 -297h1044l29 -1723h297l-15 1737h863v311z" />
<glyph unicode="U" horiz-adv-x="1540" d="M12 884q-12 155 -12 335q0 195 14 419h283q-24 -290 -24 -523q1 -71 3 -137q10 -282 42 -475.5t82.5 -321.5t103.5 -198.5t100 -103.5t76 -40t31 -7t30.5 4t76.5 33t101.5 94.5t103.5 188t85 315t45 475.5q3 79 3 165q0 225 -19 503h256q17 -243 18 -451q0 -161 -11 -301 q-24 -320 -80 -538t-135 -359t-161 -216t-153.5 -109.5t-114.5 -40t-45 -5.5t-45 7.5t-116 44t-155 114.5t-161.5 222.5t-138 364t-83.5 541.5z" />
<glyph unicode="V" horiz-adv-x="2103" d="M0 1638l774 -2048h328l946 2034h-358l-729 -1733l-660 1747h-301z" />
<glyph unicode="W" horiz-adv-x="2500" d="M0 1542l346 27l291 -1536l373 1605l305 -69l428 -1342l250 1327l415 29l-567 -1993l-221 29l-416 1632l-471 -1632h-221z" />
<glyph unicode="X" horiz-adv-x="2013" d="M0 -395h367l540 686l410 -701h293l-531 920l881 1114l-293 14l-727 -886l-502 872l-321 14l647 -1103z" />
<glyph unicode="Y" horiz-adv-x="1579" d="M0 1638l588 -1146l-41 -902h272v928l711 1065l-234 41l-573 -831l-451 831z" />
<glyph unicode="Z" horiz-adv-x="1699" d="M0 1638l57 -297l1016 -28l-1030 -1313l14 -395l1581 -15l-14 297l-1284 43l1229 1327l26 367z" />
<glyph unicode="[" horiz-adv-x="2531" d="M0 37l4 8l19 2l43 -4l49 -8l32 -4l33 -6v-5l13 25l139 8l184 17l113 71l43 148l26 168l72 129l-16 16l-23 -27l-35 -20l-24 12l-23 27l-22 14l-25 21l-22 33l-25 32l-10 27l-35 6l-6 33l12 41l29 39l41 47l51 33h59l41 -9l39 -24l35 -53l18 -41v-45l29 -48l-4 -8l72 86 l131 96l47 -12l57 29l88 80l51 59l35 53l-51 97l-27 77l-61 70l-18 62l34 14l-4 16l-6 15l-6 14l-8 10l-19 8l-22 11l-23 4l-12 4l-4 8l2 6l12 4l19 -4l4 2l-6 15l-13 22l-6 12l-10 25l-6 16v8l6 7l8 -4l8 -7l2 -14l9 -22l8 -19l10 -16l14 -4l-10 18l-6 18l-4 25l-2 29v14 l6 10l10 4l8 -4l-2 -14v-31l7 -41l12 -20l10 -4l-10 18l-4 23v32l2 19l4 10l6 2l8 -8l-4 -25v-20l6 -27l4 -12v12l4 21v12v8l5 4l8 -4l2 -10v-18l-2 -13v-10l12 -10l10 -6l13 -15l2 -22l8 -19v-12v-8l4 -12l16 8l35 -70l70 -96l96 -123l16 -78l-43 -131l-139 -201l-35 -88 l62 -61l86 -70l96 -61l150 -35l69 -8l35 -70l8 -53l115 10l139 17l131 18l70 8h96l61 -26l78 -113v-70l-34 -53l61 -8l16 -45l-43 -17l-78 -18h-88l-43 18l17 27l-27 16l35 54l8 18l-24 17l-340 -54l-80 -8l-86 -27l24 -61l80 -96l62 -51l59 -62l53 -35l88 -8l70 27l27 -19 v27l34 8l43 -16l54 -11h59l53 -16l43 -45l-34 -25l-43 -26l-35 26l-54 9l-43 8l-18 -43l-43 -19l-61 -24l-113 -19l-193 62l-174 96l-123 86l-69 80l-53 -53l-9 61l-131 96l-139 70l-192 96l-156 17l-88 -140l-78 -77l-107 -43l-217 8l-139 8l-53 -8l4 28l-6 -2l-25 -6 l-16 -2l-25 -6l-10 2l2 8l12 4l4 5l13 6l-23 4l-16 -6l-10 -4h-13l-2 4l4 6l17 2l16 4l-14 2h-25l-12 -2l-10 2l6 8l4 2l2 2l12 2l-24 2h-15l-8 4l-4 7l8 4l11 2h-15z" />
<glyph unicode="\" d="M0 -338l10 23l21 53l10 55l8 41l2 -100l21 -58l14 -41l-25 -45l-30 4l-31 23v45zM57 -106l523 454l-35 25zM512 516l55 66l60 -52l32 39l-57 33l39 39l41 -43l33 37l-39 18l39 56l47 -25l33 29l-47 24l47 58l59 -60l33 29l-49 35l63 65l45 -67l31 28l-31 43l39 47l51 -67 l33 29l-70 67l76 33l62 -59l24 20l-57 55l80 70l209 -166l-695 -578l-149 117zM834 1071v150l61 77l131 17l78 -35l43 -43l96 -88l123 -105l78 -104l112 -96l89 -139l-27 -105l-86 -78l-150 17l-69 53l35 51l43 -51l131 -19l61 62l8 78l-104 141l-182 156l-78 104l-158 141 l-104 25l-62 -25l-35 -71v-78l35 -113l-35 -35zM1356 1133l342 262l147 131l-61 69l53 43l182 -192l-51 -62l-70 72l-114 -72l-217 -190l-166 -115z" />
<glyph unicode="]" horiz-adv-x="837" />
<glyph unicode="^" d="M0 -338l10 23l21 53l10 55l8 41l2 -100l21 -58l14 -41l-25 -45l-30 4l-31 23v45zM57 -106l523 454l-35 25zM512 516l55 66l60 -52l32 39l-57 33l39 39l41 -43l33 37l-39 18l39 56l47 -25l33 29l-47 24l47 58l59 -60l33 29l-49 35l63 65l45 -67l31 28l-31 43l39 47l51 -67 l33 29l-70 67l76 33l62 -59l24 20l-57 55l80 70l209 -166l-695 -578l-149 117zM834 1071v150l61 77l131 17l78 -35l43 -43l96 -88l123 -105l78 -104l112 -96l89 -139l-27 -105l-86 -78l-150 17l-69 53l35 51l43 -51l131 -19l61 62l8 78l-104 141l-182 156l-78 104l-158 141 l-104 25l-62 -25l-35 -71v-78l35 -113l-35 -35zM1356 1133l342 262l147 131l-61 69l53 43l182 -192l-51 -62l-70 72l-114 -72l-217 -190l-166 -115z" />
<glyph unicode="_" horiz-adv-x="2531" d="M0 37l4 8l19 2l43 -4l49 -8l32 -4l33 -6v-5l13 25l139 8l184 17l113 71l43 148l26 168l72 129l-16 16l-23 -27l-35 -20l-24 12l-23 27l-22 14l-25 21l-22 33l-25 32l-10 27l-35 6l-6 33l12 41l29 39l41 47l51 33h59l41 -9l39 -24l35 -53l18 -41v-45l29 -48l-4 -8l72 86 l131 96l47 -12l57 29l88 80l51 59l35 53l-51 97l-27 77l-61 70l-18 62l34 14l-4 16l-6 15l-6 14l-8 10l-19 8l-22 11l-23 4l-12 4l-4 8l2 6l12 4l19 -4l4 2l-6 15l-13 22l-6 12l-10 25l-6 16v8l6 7l8 -4l8 -7l2 -14l9 -22l8 -19l10 -16l14 -4l-10 18l-6 18l-4 25l-2 29v14 l6 10l10 4l8 -4l-2 -14v-31l7 -41l12 -20l10 -4l-10 18l-4 23v32l2 19l4 10l6 2l8 -8l-4 -25v-20l6 -27l4 -12v12l4 21v12v8l5 4l8 -4l2 -10v-18l-2 -13v-10l12 -10l10 -6l13 -15l2 -22l8 -19v-12v-8l4 -12l16 8l35 -70l70 -96l96 -123l16 -78l-43 -131l-139 -201l-35 -88 l62 -61l86 -70l96 -61l150 -35l69 -8l35 -70l8 -53l115 10l139 17l131 18l70 8h96l61 -26l78 -113v-70l-34 -53l61 -8l16 -45l-43 -17l-78 -18h-88l-43 18l17 27l-27 16l35 54l8 18l-24 17l-340 -54l-80 -8l-86 -27l24 -61l80 -96l62 -51l59 -62l53 -35l88 -8l70 27l27 -19 v27l34 8l43 -16l54 -11h59l53 -16l43 -45l-34 -25l-43 -26l-35 26l-54 9l-43 8l-18 -43l-43 -19l-61 -24l-113 -19l-193 62l-174 96l-123 86l-69 80l-53 -53l-9 61l-131 96l-139 70l-192 96l-156 17l-88 -140l-78 -77l-107 -43l-217 8l-139 8l-53 -8l4 28l-6 -2l-25 -6 l-16 -2l-25 -6l-10 2l2 8l12 4l4 5l13 6l-23 4l-16 -6l-10 -4h-13l-2 4l4 6l17 2l16 4l-14 2h-25l-12 -2l-10 2l6 8l4 2l2 2l12 2l-24 2h-15l-8 4l-4 7l8 4l11 2h-15z" />
<glyph unicode="`" horiz-adv-x="2531" d="M0 37l4 8l19 2l43 -4l49 -8l32 -4l33 -6v-5l13 25l139 8l184 17l113 71l43 148l26 168l72 129l-16 16l-23 -27l-35 -20l-24 12l-23 27l-22 14l-25 21l-22 33l-25 32l-10 27l-35 6l-6 33l12 41l29 39l41 47l51 33h59l41 -9l39 -24l35 -53l18 -41v-45l29 -48l-4 -8l72 86 l131 96l47 -12l57 29l88 80l51 59l35 53l-51 97l-27 77l-61 70l-18 62l34 14l-4 16l-6 15l-6 14l-8 10l-19 8l-22 11l-23 4l-12 4l-4 8l2 6l12 4l19 -4l4 2l-6 15l-13 22l-6 12l-10 25l-6 16v8l6 7l8 -4l8 -7l2 -14l9 -22l8 -19l10 -16l14 -4l-10 18l-6 18l-4 25l-2 29v14 l6 10l10 4l8 -4l-2 -14v-31l7 -41l12 -20l10 -4l-10 18l-4 23v32l2 19l4 10l6 2l8 -8l-4 -25v-20l6 -27l4 -12v12l4 21v12v8l5 4l8 -4l2 -10v-18l-2 -13v-10l12 -10l10 -6l13 -15l2 -22l8 -19v-12v-8l4 -12l16 8l35 -70l70 -96l96 -123l16 -78l-43 -131l-139 -201l-35 -88 l62 -61l86 -70l96 -61l150 -35l69 -8l35 -70l8 -53l115 10l139 17l131 18l70 8h96l61 -26l78 -113v-70l-34 -53l61 -8l16 -45l-43 -17l-78 -18h-88l-43 18l17 27l-27 16l35 54l8 18l-24 17l-340 -54l-80 -8l-86 -27l24 -61l80 -96l62 -51l59 -62l53 -35l88 -8l70 27l27 -19 v27l34 8l43 -16l54 -11h59l53 -16l43 -45l-34 -25l-43 -26l-35 26l-54 9l-43 8l-18 -43l-43 -19l-61 -24l-113 -19l-193 62l-174 96l-123 86l-69 80l-53 -53l-9 61l-131 96l-139 70l-192 96l-156 17l-88 -140l-78 -77l-107 -43l-217 8l-139 8l-53 -8l4 28l-6 -2l-25 -6 l-16 -2l-25 -6l-10 2l2 8l12 4l4 5l13 6l-23 4l-16 -6l-10 -4h-13l-2 4l4 6l17 2l16 4l-14 2h-25l-12 -2l-10 2l6 8l4 2l2 2l12 2l-24 2h-15l-8 4l-4 7l8 4l11 2h-15z" />
<glyph unicode="a" horiz-adv-x="2013" d="M0 -410l582 2007l383 41l987 -2019l-305 -29l-387 748l-701 82l-242 -830h-317zM633 662l553 -76l-350 684z" />
<glyph unicode="b" horiz-adv-x="1593" d="M0 -406v2042q70 2 136 2q267 0 462 -26q244 -32 402.5 -85.5t246.5 -118.5t129 -121t50 -94l8 -38q0 -4 -4.5 -43t-35 -101.5t-99 -122t-197.5 -102.5t-332 -43q211 -39 347 -116.5t210 -163.5t107.5 -170t40 -134t6.5 -55q0 -127 -72 -216t-191.5 -146t-273.5 -89 t-317.5 -46.5t-325.5 -15.5h-64q-125 0 -233 3zM311 -174q264 10 435.5 44t263.5 77t135 85t50 68.5t7 28.5t-7 35t-50 86t-135 105.5t-263.5 95.5t-435.5 55v-680zM332 885q209 4 344 30.5t207.5 60.5t106.5 69.5t40 57t6 23.5t-6 23.5t-40 57.5t-106.5 71t-207.5 63.5 t-344 34.5v-491z" />
<glyph unicode="c" horiz-adv-x="2009" d="M0 651q0 131 47 256t129 234.5t193.5 201t241.5 157t272.5 102t283.5 36.5q4 0 61.5 -2t155 -17t205 -47t212 -90.5t173.5 -148.5l-180 -264q-143 86 -272 129t-225.5 60.5t-153.5 17.5h-58q-172 -10 -302 -73.5t-219 -154t-136 -192.5t-53 -190q-1 -17 -1 -35 q0 -46 7 -100q10 -76 37.5 -156t76 -157t122 -139.5t175 -103.5t236.5 -47h57t141.5 10.5t179.5 38t172 84t118 146.5l278 -252q-76 -76 -177 -132t-207.5 -96t-209 -66t-183.5 -41t-131 -20l-50 -6q-45 -4 -88 -4q-114 0 -214 27q-138 37 -251 109.5t-200 177t-145.5 226.5 t-88 256t-29.5 265z" />
<glyph unicode="d" horiz-adv-x="1673" d="M0 1608q197 32 363 32q113 0 211 -15q244 -36 412.5 -128t278 -222t170 -264t89 -254t34 -190.5t5.5 -74.5t-4.5 -61.5t-30 -154t-82.5 -204t-164.5 -211t-273.5 -173.5t-409 -92q-70 -6 -147 -7q-190 0 -423 38zM362 1260l41 -1311q229 12 377 66.5t227.5 123t116.5 138 t42 112.5t5 47q0 2 -3 56.5t-18 145.5t-47 192.5t-89.5 198.5t-143.5 165t-212 90q-41 7 -86 8q-95 0 -210 -32z" />
<glyph unicode="e" horiz-adv-x="1810" d="M0 -410v2048l1708 -28l57 -312h-1341v-634l1116 -15l-14 -282l-1047 -41v-369l1272 -14l-29 -353h-1722z" />
<glyph unicode="f" horiz-adv-x="1601" d="M0 -395l371 -15v1010l1009 14v314l-1009 -15l14 383h1223l14 342h-1622v-2033z" />
<glyph unicode="g" horiz-adv-x="2029" d="M0 680v-43q0 -248 64 -439q69 -208 199 -346.5t315 -203.5q160 -57 350 -57q29 0 59 1l48 4q48 5 124 17t168 36.5t179 65.5t160 101.5t108 146.5l-15 -328l115 -14l129 686l-571 15v-187l284 15q-29 -53 -96.5 -90t-153.5 -62t-178 -37t-169 -18t-126 -7l-49 -2 q-106 0 -192 38t-153 100.5t-115 141.5t-79.5 160t-46 157.5t-14.5 134.5q0 86 32 188t111.5 193.5t218 157t353.5 75.5l43 1h13q39 0 95 -5q66 -6 146 -21.5t152.5 -47t130 -84t77.5 -130.5l230 215q-53 100 -143.5 171t-194 119t-209 76t-190.5 42t-139 18l-54 4 q-21 1 -42 1q-95 0 -192 -15q-118 -18 -230 -64.5t-210 -121t-173 -182t-120 -251t-49 -325.5z" />
<glyph unicode="h" horiz-adv-x="1898" d="M0 -410v2034l416 14l14 -831l930 14v817l387 -14l-14 -2034h-373v889l-973 29l14 -918h-401z" />
<glyph unicode="i" horiz-adv-x="587" d="M0 1624l410 14l28 -2048l-409 29z" />
<glyph unicode="j" horiz-adv-x="1222" d="M0 373l342 -15q-2 -42 -2 -80q0 -119 24 -191q31 -95 74 -139t80 -52l37 -7q2 0 17.5 3.5t39 24t47 65.5t39.5 126q13 71 13 179v28l-15 1323h385l-28 -1323q-4 -219 -59.5 -359t-128 -215t-148.5 -108.5t-124 -38t-52 -4.5l-41 6q-41 5 -102.5 27.5t-132 70.5t-131 135 t-99.5 219q-35 120 -35 290v35z" />
<glyph unicode="k" horiz-adv-x="1554" d="M0 -381l328 -14l43 739l297 270l313 -1024h313l-397 1223l567 641l-284 156l-809 -854l26 839l-383 43z" />
<glyph unicode="l" horiz-adv-x="1402" d="M0 -381l14 2019l342 -14l15 -1663h1050v-371z" />
<glyph unicode="m" horiz-adv-x="2195" d="M0 -381l324 14l-15 1262l588 -1276h295l532 1221l113 -1235l225 -15l-69 1964l-226 15l-700 -1559l-772 1614l-281 14z" />
<glyph unicode="n" horiz-adv-x="1677" d="M0 -410l348 15l-41 1337l737 -1323l488 -14l-84 2019l-236 14l15 -1740l-908 1726l-305 -14z" />
<glyph unicode="o" horiz-adv-x="2570" d="M0 559q0 63 39 169t112.5 226.5t181 244.5t245 222.5t301.5 159.5q154 57 329 57h23q256 -4 447.5 -55t327.5 -132t224 -187.5t140.5 -222t72 -232.5t19.5 -223q0 -109 -31 -225.5t-100.5 -228.5t-181 -212t-275.5 -175t-382 -117q-199 -38 -452 -38h-49 q-162 2 -299 49.5t-246.5 124t-193.5 176t-139.5 207t-84 214t-28.5 198.5zM354 554q22 -104 78.5 -198t140.5 -177t172.5 -146.5t169 -104.5t134.5 -51q76 -16 170 -19q19 -1 38 0q76 0 155 9q99 12 197.5 41t182.5 77t147.5 116.5t94.5 158.5q53 158 57 289v28 q-1 115 -29 209q-32 106 -95.5 186.5t-144.5 138.5t-173.5 96t-182.5 59q-88 18 -189 28q-56 6 -113 6q-46 0 -94 -4q-106 -8 -210 -38.5t-196.5 -93t-169 -161t-125.5 -241.5q-23 -66 -23 -131q0 -39 8 -77z" />
<glyph unicode="p" horiz-adv-x="1605" d="M0 1573q332 63 580 64h11q240 0 406 -41q170 -42 282 -112.5t173 -149.5t90 -150.5t35 -115.5t6 -46q0 -4 -9 -59.5t-68.5 -137.5t-192.5 -153.5t-380 -110.5q-134 -21 -307 -21q-147 0 -323 15v-965l-289 15zM317 1339l13 -495q209 -31 365 -31q53 0 100 4 q184 14 285.5 55t148.5 92.5t56 87t9 40.5q0 4 -6 39.5t-52 87t-146.5 92.5t-289.5 55q-49 4 -104 4q-161 0 -379 -31z" />
<glyph unicode="q" horiz-adv-x="2093" d="M0 506q0 125 43 260t121 263t184.5 240.5t234.5 196.5t271 132q125 41 255 41q19 0 38 -1q170 -8 297 -63t218 -143.5t150.5 -201t93 -234.5t47 -245.5t13.5 -232.5q0 -147 -70.5 -273t-193.5 -225l264 -321l-151 -109l-279 324q-137 -70 -302 -107.5t-347 -37.5 q-442 0 -664.5 178t-222.5 559zM236 818q-5 -38 -5 -78q0 -70 17 -148q23 -109 83 -203t144 -170t185.5 -131t208 -86t211.5 -37q21 -1 41 -1q82 0 155 20q43 10 80 25.5t71 31.5l-198 231l149 138l203 -246q97 121 97 313q0 125 -42 281q-41 158 -117.5 288t-175 217 t-213.5 123q-63 19 -126 19q-53 0 -107 -14q-78 -20 -164 -53t-168 -80.5t-151.5 -111t-115.5 -145t-62 -183.5z" />
<glyph unicode="r" horiz-adv-x="1615" d="M0 1593q298 45 522 45h36q236 -4 397 -43t265.5 -101t160 -130t80 -129t27.5 -99t3 -40q-2 -84 -38 -146.5t-95.5 -108.5t-139 -77t-167.5 -51q98 -59 169.5 -123t92.5 -129l13 -51q13 -50 36.5 -156.5t53.5 -271t63 -392.5l-265 27q-14 215 -41.5 358.5t-55 229.5 t-47.5 123l-21 37q-25 33 -72 71.5t-108.5 78.5t-132 79t-140.5 76h-29q-29 0 -71.5 1t-94 3t-98.5 8l29 -1077l-318 26zM332 930q222 -43 374 -43q22 0 42 1q162 7 249.5 43t126.5 85t44.5 84t5.5 37t-8.5 36.5t-49.5 82t-128 80.5q-88 34 -244 36h-10q-154 0 -388 -55z " />
<glyph unicode="s" horiz-adv-x="2093" d="M0 1188q-1 3 -1 7q-1 18 17 54q20 43 69.5 95.5t132.5 107.5t205 98q123 43 285 69q121 19 268 19q51 0 105 -2q2 0 53.5 -4t137.5 -17t185 -40t198.5 -72t178.5 -113t123 -164q35 -76 35 -169q0 -26 -3 -53h-344q-72 123 -166.5 192.5t-179.5 102t-144 39.5l-59 8 q-135 6 -251 14q-52 4 -97 4q-56 0 -102 -6q-83 -10 -129 -54q-41 -39 -41 -121q0 -11 1 -22q4 -66 57.5 -117t139.5 -90t195.5 -68.5t226 -54t233.5 -47t213 -45t166 -67.5t117 -101.5t74.5 -120t42 -123t18.5 -109.5t4 -81t-4 -84t-28.5 -113.5t-78 -123t-151.5 -112.5 t-248.5 -82t-372.5 -32q-2 0 -49 2t-130 14.5t-183.5 40t-209 78t-205.5 128t-175 190.5t-117 266l357 15q55 -133 139 -220.5t171 -134.5t168 -68.5t127 -25.5t50 -4q63 0 155.5 4t178.5 30.5t146.5 84t60.5 164.5q0 104 -35 171.5t-97.5 110.5t-147.5 66.5t-187.5 42 t-216 37t-232.5 51.5q-178 49 -293.5 110.5t-187.5 131t-110 148.5t-58 165z" />
<glyph unicode="t" horiz-adv-x="2256" d="M0 1610l29 -297h1044l29 -1723h297l-15 1737h863v311z" />
<glyph unicode="u" horiz-adv-x="1540" d="M12 884q-12 155 -12 335q0 195 14 419h283q-24 -290 -24 -523q1 -71 3 -137q10 -282 42 -475.5t82.5 -321.5t103.5 -198.5t100 -103.5t76 -40t31 -7t30.5 4t76.5 33t101.5 94.5t103.5 188t85 315t45 475.5q3 79 3 165q0 225 -19 503h256q17 -243 18 -451q0 -161 -11 -301 q-24 -320 -80 -538t-135 -359t-161 -216t-153.5 -109.5t-114.5 -40t-45 -5.5t-45 7.5t-116 44t-155 114.5t-161.5 222.5t-138 364t-83.5 541.5z" />
<glyph unicode="v" horiz-adv-x="2103" d="M0 1638l774 -2048h328l946 2034h-358l-729 -1733l-660 1747h-301z" />
<glyph unicode="w" horiz-adv-x="2500" d="M0 1542l346 27l291 -1536l373 1605l305 -69l428 -1342l250 1327l415 29l-567 -1993l-221 29l-416 1632l-471 -1632h-221z" />
<glyph unicode="x" horiz-adv-x="2013" d="M0 -395h367l540 686l410 -701h293l-531 920l881 1114l-293 14l-727 -886l-502 872l-321 14l647 -1103z" />
<glyph unicode="y" horiz-adv-x="1579" d="M0 1638l588 -1146l-41 -902h272v928l711 1065l-234 41l-573 -831l-451 831z" />
<glyph unicode="z" horiz-adv-x="1699" d="M0 1638l57 -297l1016 -28l-1030 -1313l14 -395l1581 -15l-14 297l-1284 43l1229 1327l26 367z" />
<glyph unicode="{" horiz-adv-x="1896" d="M0 106l223 869q31 119 109 224.5t189.5 187t250.5 132t293 58.5v-719q-68 -20 -121 -58t-91 -89.5t-57.5 -113.5t-19.5 -130q0 -86 32 -161t89 -130t136 -87t173 -32t169 32t127 87t80 130t28 161q0 133 -59.5 238.5t-190.5 148.5v690q117 -35 215 -96.5t170 -138 t111.5 -163.5t39.5 -171v-1176l-4 -33q-4 -32 -25.5 -71t-67.5 -72t-132 -33h-1231q-80 0 -123 33t-63.5 72t-23.5 71l-3 33v256zM496 842q0 -35 27.5 -60.5t66.5 -25.5q41 0 68.5 25.5t27.5 60.5q0 37 -27.5 62.5t-68.5 25.5q-39 0 -66.5 -25.5t-27.5 -62.5zM823 473 q0 -78 29 -144.5t80 -116.5t117.5 -79t144.5 -29q76 0 143.5 29t117.5 79t79 116.5t29 144.5q0 121 -68 214t-174 132v819h-213v-804q-61 -14 -113.5 -48t-90.5 -82.5t-59.5 -106.5t-21.5 -124z" />
<glyph unicode="|" horiz-adv-x="4173" d="M0 721l8 49l303 -25l279 82l237 33l418 33l352 123l230 155l950 -41l98 -106l33 -172l-90 -25h-172v41h164l65 17l-24 139l-98 90l-893 33l-246 -164l-352 -123l-418 -49l-246 -25l-279 -81zM27 -150v-260l850 201l528 96l229 23l207 -141l242 -37l252 -23l92 129l70 49 l69 117l68 72l92 106l115 178l-11 107l58 12l45 82v107l-92 94l-150 47l-102 -23l-58 -47l11 -131l127 -35l69 -36l92 -70l-12 -59l-47 34l-80 37l-57 47l-92 82l-183 47l-92 -47l-12 -94l104 -72l207 -106l80 -129l-104 94l-103 59l-127 70l-241 49l-58 -106l185 -109 l172 -129l12 -166l-47 82l-80 144l-57 69l-173 60l-47 36l-67 -84l67 -81l117 -95l68 -106l-41 31l-350 63l-80 12l-195 82l-115 35l-196 -47zM1772 1438v69l139 -10l67 10l58 25l-58 -119zM1806 1200l35 60h80l127 71l-70 23l58 178l92 24l620 -83l13 -82l286 -60l23 47 l999 -143l-22 -141l-35 -154l-309 59l-23 -34l-528 69l-35 -47l-47 -141l-57 -84l-115 -23l-23 35l103 25l92 47v166l-125 47l-92 82l-621 37zM2118 1604l57 34l872 -141l885 -106v47l137 -107v-96l-999 143l-322 95zM2761 1354v37l274 -25l12 -35zM4037 999l32 236l105 -10 l-35 -131l-12 -95h-90z" />
<glyph unicode="}" horiz-adv-x="2826" d="M-4 799l606 -262q14 -51 57 -96.5t89.5 -78t81.5 -50.5l34 -19l38 -15q38 -16 96.5 -30.5t131 -17.5t142.5 22l284 -129l52 -195l-1532 576zM31 831l1394 580l33 -16zM168 813q0 16 23.5 28.5t58.5 12.5t59.5 -12.5t24.5 -28.5t-24.5 -28.5t-59.5 -12.5t-58.5 12.5 t-23.5 28.5zM250 813l16 66zM375 893q0 18 26.5 30.5t63.5 12.5q35 0 61.5 -12.5t26.5 -30.5t-26.5 -31.5t-61.5 -13.5q-37 0 -63.5 13t-26.5 32zM465 893l6 -68zM592 632.5q18 -100.5 97 -177t210 -123.5t303 -51.5t343 34.5t318.5 110t259 169t165.5 211q2 6 6 14 l-365 -135l-141 -27v-20l-88 -10l-14 67l102 17l8 -23l111 27l358 151l62 -71l198 106l-110 131l-88 -74q2 63 -23 127l453 -180l-461 195q-57 117 -208 191.5t-374 80.5h-63l-111 47l-41 -16l86 -33q-158 -12 -308.5 -56t-279.5 -114t-225 -160t-145 -192 q-53 -115 -35 -215.5zM1200 834q16 35 51 64.5t80 52t98.5 34.5t106.5 10t94 -16t65.5 -37.5t30 -55.5t-11 -67t-51.5 -64.5t-80 -52t-98 -35t-107 -10.5q-106 4 -158.5 54.5t-19.5 122.5zM1362 794.5q-8 14.5 2 33t39 32.5q27 14 48.5 20.5t47.5 -8.5q29 -14 33 -35.5 t-33 -33.5q-18 -6 -38.5 -14.5t-39 -11.5t-35 0t-24.5 17.5zM1546 141l51 -196l1192 743l-6 213z" />
<glyph unicode="~" horiz-adv-x="4173" d="M0 721l8 49l303 -25l279 82l237 33l418 33l352 123l230 155l950 -41l98 -106l33 -172l-90 -25h-172v41h164l65 17l-24 139l-98 90l-893 33l-246 -164l-352 -123l-418 -49l-246 -25l-279 -81zM27 -150v-260l850 201l528 96l229 23l207 -141l242 -37l252 -23l92 129l70 49 l69 117l68 72l92 106l115 178l-11 107l58 12l45 82v107l-92 94l-150 47l-102 -23l-58 -47l11 -131l127 -35l69 -36l92 -70l-12 -59l-47 34l-80 37l-57 47l-92 82l-183 47l-92 -47l-12 -94l104 -72l207 -106l80 -129l-104 94l-103 59l-127 70l-241 49l-58 -106l185 -109 l172 -129l12 -166l-47 82l-80 144l-57 69l-173 60l-47 36l-67 -84l67 -81l117 -95l68 -106l-41 31l-350 63l-80 12l-195 82l-115 35l-196 -47zM1772 1438v69l139 -10l67 10l58 25l-58 -119zM1806 1200l35 60h80l127 71l-70 23l58 178l92 24l620 -83l13 -82l286 -60l23 47 l999 -143l-22 -141l-35 -154l-309 59l-23 -34l-528 69l-35 -47l-47 -141l-57 -84l-115 -23l-23 35l103 25l92 47v166l-125 47l-92 82l-621 37zM2118 1604l57 34l872 -141l885 -106v47l137 -107v-96l-999 143l-322 95zM2761 1354v37l274 -25l12 -35zM4037 999l32 236l105 -10 l-35 -131l-12 -95h-90z" />
<glyph horiz-adv-x="837" />
<glyph horiz-adv-x="2826" d="M-4 799l606 -262q14 -51 57 -96.5t89.5 -78t81.5 -50.5l34 -19l38 -15q38 -16 96.5 -30.5t131 -17.5t142.5 22l284 -129l52 -195l-1532 576zM31 831l1394 580l33 -16zM168 813q0 16 23.5 28.5t58.5 12.5t59.5 -12.5t24.5 -28.5t-24.5 -28.5t-59.5 -12.5t-58.5 12.5 t-23.5 28.5zM250 813l16 66zM375 893q0 18 26.5 30.5t63.5 12.5q35 0 61.5 -12.5t26.5 -30.5t-26.5 -31.5t-61.5 -13.5q-37 0 -63.5 13t-26.5 32zM465 893l6 -68zM592 632.5q18 -100.5 97 -177t210 -123.5t303 -51.5t343 34.5t318.5 110t259 169t165.5 211q2 6 6 14 l-365 -135l-141 -27v-20l-88 -10l-14 67l102 17l8 -23l111 27l358 151l62 -71l198 106l-110 131l-88 -74q2 63 -23 127l453 -180l-461 195q-57 117 -208 191.5t-374 80.5h-63l-111 47l-41 -16l86 -33q-158 -12 -308.5 -56t-279.5 -114t-225 -160t-145 -192 q-53 -115 -35 -215.5zM1200 834q16 35 51 64.5t80 52t98.5 34.5t106.5 10t94 -16t65.5 -37.5t30 -55.5t-11 -67t-51.5 -64.5t-80 -52t-98 -35t-107 -10.5q-106 4 -158.5 54.5t-19.5 122.5zM1362 794.5q-8 14.5 2 33t39 32.5q27 14 48.5 20.5t47.5 -8.5q29 -14 33 -35.5 t-33 -33.5q-18 -6 -38.5 -14.5t-39 -11.5t-35 0t-24.5 17.5zM1546 141l51 -196l1192 743l-6 213z" />
<glyph horiz-adv-x="2826" d="M-4 799l606 -262q14 -51 57 -96.5t89.5 -78t81.5 -50.5l34 -19l38 -15q38 -16 96.5 -30.5t131 -17.5t142.5 22l284 -129l52 -195l-1532 576zM31 831l1394 580l33 -16zM168 813q0 16 23.5 28.5t58.5 12.5t59.5 -12.5t24.5 -28.5t-24.5 -28.5t-59.5 -12.5t-58.5 12.5 t-23.5 28.5zM250 813l16 66zM375 893q0 18 26.5 30.5t63.5 12.5q35 0 61.5 -12.5t26.5 -30.5t-26.5 -31.5t-61.5 -13.5q-37 0 -63.5 13t-26.5 32zM465 893l6 -68zM592 632.5q18 -100.5 97 -177t210 -123.5t303 -51.5t343 34.5t318.5 110t259 169t165.5 211q2 6 6 14 l-365 -135l-141 -27v-20l-88 -10l-14 67l102 17l8 -23l111 27l358 151l62 -71l198 106l-110 131l-88 -74q2 63 -23 127l453 -180l-461 195q-57 117 -208 191.5t-374 80.5h-63l-111 47l-41 -16l86 -33q-158 -12 -308.5 -56t-279.5 -114t-225 -160t-145 -192 q-53 -115 -35 -215.5zM1200 834q16 35 51 64.5t80 52t98.5 34.5t106.5 10t94 -16t65.5 -37.5t30 -55.5t-11 -67t-51.5 -64.5t-80 -52t-98 -35t-107 -10.5q-106 4 -158.5 54.5t-19.5 122.5zM1362 794.5q-8 14.5 2 33t39 32.5q27 14 48.5 20.5t47.5 -8.5q29 -14 33 -35.5 t-33 -33.5q-18 -6 -38.5 -14.5t-39 -11.5t-35 0t-24.5 17.5zM1546 141l51 -196l1192 743l-6 213z" />
<glyph unicode="&#xa5;" horiz-adv-x="2826" d="M-4 799l606 -262q14 -51 57 -96.5t89.5 -78t81.5 -50.5l34 -19l38 -15q38 -16 96.5 -30.5t131 -17.5t142.5 22l284 -129l52 -195l-1532 576zM31 831l1394 580l33 -16zM168 813q0 16 23.5 28.5t58.5 12.5t59.5 -12.5t24.5 -28.5t-24.5 -28.5t-59.5 -12.5t-58.5 12.5 t-23.5 28.5zM250 813l16 66zM375 893q0 18 26.5 30.5t63.5 12.5q35 0 61.5 -12.5t26.5 -30.5t-26.5 -31.5t-61.5 -13.5q-37 0 -63.5 13t-26.5 32zM465 893l6 -68zM592 632.5q18 -100.5 97 -177t210 -123.5t303 -51.5t343 34.5t318.5 110t259 169t165.5 211q2 6 6 14 l-365 -135l-141 -27v-20l-88 -10l-14 67l102 17l8 -23l111 27l358 151l62 -71l198 106l-110 131l-88 -74q2 63 -23 127l453 -180l-461 195q-57 117 -208 191.5t-374 80.5h-63l-111 47l-41 -16l86 -33q-158 -12 -308.5 -56t-279.5 -114t-225 -160t-145 -192 q-53 -115 -35 -215.5zM1200 834q16 35 51 64.5t80 52t98.5 34.5t106.5 10t94 -16t65.5 -37.5t30 -55.5t-11 -67t-51.5 -64.5t-80 -52t-98 -35t-107 -10.5q-106 4 -158.5 54.5t-19.5 122.5zM1362 794.5q-8 14.5 2 33t39 32.5q27 14 48.5 20.5t47.5 -8.5q29 -14 33 -35.5 t-33 -33.5q-18 -6 -38.5 -14.5t-39 -11.5t-35 0t-24.5 17.5zM1546 141l51 -196l1192 743l-6 213z" />
<glyph unicode="&#xa6;" horiz-adv-x="2826" d="M-4 799l606 -262q14 -51 57 -96.5t89.5 -78t81.5 -50.5l34 -19l38 -15q38 -16 96.5 -30.5t131 -17.5t142.5 22l284 -129l52 -195l-1532 576zM31 831l1394 580l33 -16zM168 813q0 16 23.5 28.5t58.5 12.5t59.5 -12.5t24.5 -28.5t-24.5 -28.5t-59.5 -12.5t-58.5 12.5 t-23.5 28.5zM250 813l16 66zM375 893q0 18 26.5 30.5t63.5 12.5q35 0 61.5 -12.5t26.5 -30.5t-26.5 -31.5t-61.5 -13.5q-37 0 -63.5 13t-26.5 32zM465 893l6 -68zM592 632.5q18 -100.5 97 -177t210 -123.5t303 -51.5t343 34.5t318.5 110t259 169t165.5 211q2 6 6 14 l-365 -135l-141 -27v-20l-88 -10l-14 67l102 17l8 -23l111 27l358 151l62 -71l198 106l-110 131l-88 -74q2 63 -23 127l453 -180l-461 195q-57 117 -208 191.5t-374 80.5h-63l-111 47l-41 -16l86 -33q-158 -12 -308.5 -56t-279.5 -114t-225 -160t-145 -192 q-53 -115 -35 -215.5zM1200 834q16 35 51 64.5t80 52t98.5 34.5t106.5 10t94 -16t65.5 -37.5t30 -55.5t-11 -67t-51.5 -64.5t-80 -52t-98 -35t-107 -10.5q-106 4 -158.5 54.5t-19.5 122.5zM1362 794.5q-8 14.5 2 33t39 32.5q27 14 48.5 20.5t47.5 -8.5q29 -14 33 -35.5 t-33 -33.5q-18 -6 -38.5 -14.5t-39 -11.5t-35 0t-24.5 17.5zM1546 141l51 -196l1192 743l-6 213z" />
<glyph unicode="&#xa7;" horiz-adv-x="2826" d="M-4 799l606 -262q14 -51 57 -96.5t89.5 -78t81.5 -50.5l34 -19l38 -15q38 -16 96.5 -30.5t131 -17.5t142.5 22l284 -129l52 -195l-1532 576zM31 831l1394 580l33 -16zM168 813q0 16 23.5 28.5t58.5 12.5t59.5 -12.5t24.5 -28.5t-24.5 -28.5t-59.5 -12.5t-58.5 12.5 t-23.5 28.5zM250 813l16 66zM375 893q0 18 26.5 30.5t63.5 12.5q35 0 61.5 -12.5t26.5 -30.5t-26.5 -31.5t-61.5 -13.5q-37 0 -63.5 13t-26.5 32zM465 893l6 -68zM592 632.5q18 -100.5 97 -177t210 -123.5t303 -51.5t343 34.5t318.5 110t259 169t165.5 211q2 6 6 14 l-365 -135l-141 -27v-20l-88 -10l-14 67l102 17l8 -23l111 27l358 151l62 -71l198 106l-110 131l-88 -74q2 63 -23 127l453 -180l-461 195q-57 117 -208 191.5t-374 80.5h-63l-111 47l-41 -16l86 -33q-158 -12 -308.5 -56t-279.5 -114t-225 -160t-145 -192 q-53 -115 -35 -215.5zM1200 834q16 35 51 64.5t80 52t98.5 34.5t106.5 10t94 -16t65.5 -37.5t30 -55.5t-11 -67t-51.5 -64.5t-80 -52t-98 -35t-107 -10.5q-106 4 -158.5 54.5t-19.5 122.5zM1362 794.5q-8 14.5 2 33t39 32.5q27 14 48.5 20.5t47.5 -8.5q29 -14 33 -35.5 t-33 -33.5q-18 -6 -38.5 -14.5t-39 -11.5t-35 0t-24.5 17.5zM1546 141l51 -196l1192 743l-6 213z" />
<glyph unicode="&#xa8;" d="M0 -338l10 23l21 53l10 55l8 41l2 -100l21 -58l14 -41l-25 -45l-30 4l-31 23v45zM57 -106l523 454l-35 25zM512 516l55 66l60 -52l32 39l-57 33l39 39l41 -43l33 37l-39 18l39 56l47 -25l33 29l-47 24l47 58l59 -60l33 29l-49 35l63 65l45 -67l31 28l-31 43l39 47l51 -67 l33 29l-70 67l76 33l62 -59l24 20l-57 55l80 70l209 -166l-695 -578l-149 117zM834 1071v150l61 77l131 17l78 -35l43 -43l96 -88l123 -105l78 -104l112 -96l89 -139l-27 -105l-86 -78l-150 17l-69 53l35 51l43 -51l131 -19l61 62l8 78l-104 141l-182 156l-78 104l-158 141 l-104 25l-62 -25l-35 -71v-78l35 -113l-35 -35zM1356 1133l342 262l147 131l-61 69l53 43l182 -192l-51 -62l-70 72l-114 -72l-217 -190l-166 -115z" />
<glyph unicode="&#xa9;" horiz-adv-x="2826" d="M-4 799l606 -262q14 -51 57 -96.5t89.5 -78t81.5 -50.5l34 -19l38 -15q38 -16 96.5 -30.5t131 -17.5t142.5 22l284 -129l52 -195l-1532 576zM31 831l1394 580l33 -16zM168 813q0 16 23.5 28.5t58.5 12.5t59.5 -12.5t24.5 -28.5t-24.5 -28.5t-59.5 -12.5t-58.5 12.5 t-23.5 28.5zM250 813l16 66zM375 893q0 18 26.5 30.5t63.5 12.5q35 0 61.5 -12.5t26.5 -30.5t-26.5 -31.5t-61.5 -13.5q-37 0 -63.5 13t-26.5 32zM465 893l6 -68zM592 632.5q18 -100.5 97 -177t210 -123.5t303 -51.5t343 34.5t318.5 110t259 169t165.5 211q2 6 6 14 l-365 -135l-141 -27v-20l-88 -10l-14 67l102 17l8 -23l111 27l358 151l62 -71l198 106l-110 131l-88 -74q2 63 -23 127l453 -180l-461 195q-57 117 -208 191.5t-374 80.5h-63l-111 47l-41 -16l86 -33q-158 -12 -308.5 -56t-279.5 -114t-225 -160t-145 -192 q-53 -115 -35 -215.5zM1200 834q16 35 51 64.5t80 52t98.5 34.5t106.5 10t94 -16t65.5 -37.5t30 -55.5t-11 -67t-51.5 -64.5t-80 -52t-98 -35t-107 -10.5q-106 4 -158.5 54.5t-19.5 122.5zM1362 794.5q-8 14.5 2 33t39 32.5q27 14 48.5 20.5t47.5 -8.5q29 -14 33 -35.5 t-33 -33.5q-18 -6 -38.5 -14.5t-39 -11.5t-35 0t-24.5 17.5zM1546 141l51 -196l1192 743l-6 213z" />
<glyph unicode="&#xaa;" d="M0 -338l10 23l21 53l10 55l8 41l2 -100l21 -58l14 -41l-25 -45l-30 4l-31 23v45zM57 -106l523 454l-35 25zM512 516l55 66l60 -52l32 39l-57 33l39 39l41 -43l33 37l-39 18l39 56l47 -25l33 29l-47 24l47 58l59 -60l33 29l-49 35l63 65l45 -67l31 28l-31 43l39 47l51 -67 l33 29l-70 67l76 33l62 -59l24 20l-57 55l80 70l209 -166l-695 -578l-149 117zM834 1071v150l61 77l131 17l78 -35l43 -43l96 -88l123 -105l78 -104l112 -96l89 -139l-27 -105l-86 -78l-150 17l-69 53l35 51l43 -51l131 -19l61 62l8 78l-104 141l-182 156l-78 104l-158 141 l-104 25l-62 -25l-35 -71v-78l35 -113l-35 -35zM1356 1133l342 262l147 131l-61 69l53 43l182 -192l-51 -62l-70 72l-114 -72l-217 -190l-166 -115z" />
<glyph unicode="&#xab;" horiz-adv-x="2826" d="M-4 799l606 -262q14 -51 57 -96.5t89.5 -78t81.5 -50.5l34 -19l38 -15q38 -16 96.5 -30.5t131 -17.5t142.5 22l284 -129l52 -195l-1532 576zM31 831l1394 580l33 -16zM168 813q0 16 23.5 28.5t58.5 12.5t59.5 -12.5t24.5 -28.5t-24.5 -28.5t-59.5 -12.5t-58.5 12.5 t-23.5 28.5zM250 813l16 66zM375 893q0 18 26.5 30.5t63.5 12.5q35 0 61.5 -12.5t26.5 -30.5t-26.5 -31.5t-61.5 -13.5q-37 0 -63.5 13t-26.5 32zM465 893l6 -68zM592 632.5q18 -100.5 97 -177t210 -123.5t303 -51.5t343 34.5t318.5 110t259 169t165.5 211q2 6 6 14 l-365 -135l-141 -27v-20l-88 -10l-14 67l102 17l8 -23l111 27l358 151l62 -71l198 106l-110 131l-88 -74q2 63 -23 127l453 -180l-461 195q-57 117 -208 191.5t-374 80.5h-63l-111 47l-41 -16l86 -33q-158 -12 -308.5 -56t-279.5 -114t-225 -160t-145 -192 q-53 -115 -35 -215.5zM1200 834q16 35 51 64.5t80 52t98.5 34.5t106.5 10t94 -16t65.5 -37.5t30 -55.5t-11 -67t-51.5 -64.5t-80 -52t-98 -35t-107 -10.5q-106 4 -158.5 54.5t-19.5 122.5zM1362 794.5q-8 14.5 2 33t39 32.5q27 14 48.5 20.5t47.5 -8.5q29 -14 33 -35.5 t-33 -33.5q-18 -6 -38.5 -14.5t-39 -11.5t-35 0t-24.5 17.5zM1546 141l51 -196l1192 743l-6 213z" />
<glyph unicode="&#xac;" d="M0 -338l10 23l21 53l10 55l8 41l2 -100l21 -58l14 -41l-25 -45l-30 4l-31 23v45zM57 -106l523 454l-35 25zM512 516l55 66l60 -52l32 39l-57 33l39 39l41 -43l33 37l-39 18l39 56l47 -25l33 29l-47 24l47 58l59 -60l33 29l-49 35l63 65l45 -67l31 28l-31 43l39 47l51 -67 l33 29l-70 67l76 33l62 -59l24 20l-57 55l80 70l209 -166l-695 -578l-149 117zM834 1071v150l61 77l131 17l78 -35l43 -43l96 -88l123 -105l78 -104l112 -96l89 -139l-27 -105l-86 -78l-150 17l-69 53l35 51l43 -51l131 -19l61 62l8 78l-104 141l-182 156l-78 104l-158 141 l-104 25l-62 -25l-35 -71v-78l35 -113l-35 -35zM1356 1133l342 262l147 131l-61 69l53 43l182 -192l-51 -62l-70 72l-114 -72l-217 -190l-166 -115z" />
<glyph unicode="&#xad;" horiz-adv-x="2826" d="M-4 799l606 -262q14 -51 57 -96.5t89.5 -78t81.5 -50.5l34 -19l38 -15q38 -16 96.5 -30.5t131 -17.5t142.5 22l284 -129l52 -195l-1532 576zM31 831l1394 580l33 -16zM168 813q0 16 23.5 28.5t58.5 12.5t59.5 -12.5t24.5 -28.5t-24.5 -28.5t-59.5 -12.5t-58.5 12.5 t-23.5 28.5zM250 813l16 66zM375 893q0 18 26.5 30.5t63.5 12.5q35 0 61.5 -12.5t26.5 -30.5t-26.5 -31.5t-61.5 -13.5q-37 0 -63.5 13t-26.5 32zM465 893l6 -68zM592 632.5q18 -100.5 97 -177t210 -123.5t303 -51.5t343 34.5t318.5 110t259 169t165.5 211q2 6 6 14 l-365 -135l-141 -27v-20l-88 -10l-14 67l102 17l8 -23l111 27l358 151l62 -71l198 106l-110 131l-88 -74q2 63 -23 127l453 -180l-461 195q-57 117 -208 191.5t-374 80.5h-63l-111 47l-41 -16l86 -33q-158 -12 -308.5 -56t-279.5 -114t-225 -160t-145 -192 q-53 -115 -35 -215.5zM1200 834q16 35 51 64.5t80 52t98.5 34.5t106.5 10t94 -16t65.5 -37.5t30 -55.5t-11 -67t-51.5 -64.5t-80 -52t-98 -35t-107 -10.5q-106 4 -158.5 54.5t-19.5 122.5zM1362 794.5q-8 14.5 2 33t39 32.5q27 14 48.5 20.5t47.5 -8.5q29 -14 33 -35.5 t-33 -33.5q-18 -6 -38.5 -14.5t-39 -11.5t-35 0t-24.5 17.5zM1546 141l51 -196l1192 743l-6 213z" />
<glyph unicode="&#xaf;" d="M0 -338l10 23l21 53l10 55l8 41l2 -100l21 -58l14 -41l-25 -45l-30 4l-31 23v45zM57 -106l523 454l-35 25zM512 516l55 66l60 -52l32 39l-57 33l39 39l41 -43l33 37l-39 18l39 56l47 -25l33 29l-47 24l47 58l59 -60l33 29l-49 35l63 65l45 -67l31 28l-31 43l39 47l51 -67 l33 29l-70 67l76 33l62 -59l24 20l-57 55l80 70l209 -166l-695 -578l-149 117zM834 1071v150l61 77l131 17l78 -35l43 -43l96 -88l123 -105l78 -104l112 -96l89 -139l-27 -105l-86 -78l-150 17l-69 53l35 51l43 -51l131 -19l61 62l8 78l-104 141l-182 156l-78 104l-158 141 l-104 25l-62 -25l-35 -71v-78l35 -113l-35 -35zM1356 1133l342 262l147 131l-61 69l53 43l182 -192l-51 -62l-70 72l-114 -72l-217 -190l-166 -115z" />
<glyph unicode="&#xb9;" horiz-adv-x="2531" d="M0 37l4 8l19 2l43 -4l49 -8l32 -4l33 -6v-5l13 25l139 8l184 17l113 71l43 148l26 168l72 129l-16 16l-23 -27l-35 -20l-24 12l-23 27l-22 14l-25 21l-22 33l-25 32l-10 27l-35 6l-6 33l12 41l29 39l41 47l51 33h59l41 -9l39 -24l35 -53l18 -41v-45l29 -48l-4 -8l72 86 l131 96l47 -12l57 29l88 80l51 59l35 53l-51 97l-27 77l-61 70l-18 62l34 14l-4 16l-6 15l-6 14l-8 10l-19 8l-22 11l-23 4l-12 4l-4 8l2 6l12 4l19 -4l4 2l-6 15l-13 22l-6 12l-10 25l-6 16v8l6 7l8 -4l8 -7l2 -14l9 -22l8 -19l10 -16l14 -4l-10 18l-6 18l-4 25l-2 29v14 l6 10l10 4l8 -4l-2 -14v-31l7 -41l12 -20l10 -4l-10 18l-4 23v32l2 19l4 10l6 2l8 -8l-4 -25v-20l6 -27l4 -12v12l4 21v12v8l5 4l8 -4l2 -10v-18l-2 -13v-10l12 -10l10 -6l13 -15l2 -22l8 -19v-12v-8l4 -12l16 8l35 -70l70 -96l96 -123l16 -78l-43 -131l-139 -201l-35 -88 l62 -61l86 -70l96 -61l150 -35l69 -8l35 -70l8 -53l115 10l139 17l131 18l70 8h96l61 -26l78 -113v-70l-34 -53l61 -8l16 -45l-43 -17l-78 -18h-88l-43 18l17 27l-27 16l35 54l8 18l-24 17l-340 -54l-80 -8l-86 -27l24 -61l80 -96l62 -51l59 -62l53 -35l88 -8l70 27l27 -19 v27l34 8l43 -16l54 -11h59l53 -16l43 -45l-34 -25l-43 -26l-35 26l-54 9l-43 8l-18 -43l-43 -19l-61 -24l-113 -19l-193 62l-174 96l-123 86l-69 80l-53 -53l-9 61l-131 96l-139 70l-192 96l-156 17l-88 -140l-78 -77l-107 -43l-217 8l-139 8l-53 -8l4 28l-6 -2l-25 -6 l-16 -2l-25 -6l-10 2l2 8l12 4l4 5l13 6l-23 4l-16 -6l-10 -4h-13l-2 4l4 6l17 2l16 4l-14 2h-25l-12 -2l-10 2l6 8l4 2l2 2l12 2l-24 2h-15l-8 4l-4 7l8 4l11 2h-15z" />
<glyph unicode="&#xbb;" horiz-adv-x="2531" d="M0 37l4 8l19 2l43 -4l49 -8l32 -4l33 -6v-5l13 25l139 8l184 17l113 71l43 148l26 168l72 129l-16 16l-23 -27l-35 -20l-24 12l-23 27l-22 14l-25 21l-22 33l-25 32l-10 27l-35 6l-6 33l12 41l29 39l41 47l51 33h59l41 -9l39 -24l35 -53l18 -41v-45l29 -48l-4 -8l72 86 l131 96l47 -12l57 29l88 80l51 59l35 53l-51 97l-27 77l-61 70l-18 62l34 14l-4 16l-6 15l-6 14l-8 10l-19 8l-22 11l-23 4l-12 4l-4 8l2 6l12 4l19 -4l4 2l-6 15l-13 22l-6 12l-10 25l-6 16v8l6 7l8 -4l8 -7l2 -14l9 -22l8 -19l10 -16l14 -4l-10 18l-6 18l-4 25l-2 29v14 l6 10l10 4l8 -4l-2 -14v-31l7 -41l12 -20l10 -4l-10 18l-4 23v32l2 19l4 10l6 2l8 -8l-4 -25v-20l6 -27l4 -12v12l4 21v12v8l5 4l8 -4l2 -10v-18l-2 -13v-10l12 -10l10 -6l13 -15l2 -22l8 -19v-12v-8l4 -12l16 8l35 -70l70 -96l96 -123l16 -78l-43 -131l-139 -201l-35 -88 l62 -61l86 -70l96 -61l150 -35l69 -8l35 -70l8 -53l115 10l139 17l131 18l70 8h96l61 -26l78 -113v-70l-34 -53l61 -8l16 -45l-43 -17l-78 -18h-88l-43 18l17 27l-27 16l35 54l8 18l-24 17l-340 -54l-80 -8l-86 -27l24 -61l80 -96l62 -51l59 -62l53 -35l88 -8l70 27l27 -19 v27l34 8l43 -16l54 -11h59l53 -16l43 -45l-34 -25l-43 -26l-35 26l-54 9l-43 8l-18 -43l-43 -19l-61 -24l-113 -19l-193 62l-174 96l-123 86l-69 80l-53 -53l-9 61l-131 96l-139 70l-192 96l-156 17l-88 -140l-78 -77l-107 -43l-217 8l-139 8l-53 -8l4 28l-6 -2l-25 -6 l-16 -2l-25 -6l-10 2l2 8l12 4l4 5l13 6l-23 4l-16 -6l-10 -4h-13l-2 4l4 6l17 2l16 4l-14 2h-25l-12 -2l-10 2l6 8l4 2l2 2l12 2l-24 2h-15l-8 4l-4 7l8 4l11 2h-15z" />
<glyph unicode="&#xc5;" d="M0 -338l10 23l21 53l10 55l8 41l2 -100l21 -58l14 -41l-25 -45l-30 4l-31 23v45zM57 -106l523 454l-35 25zM512 516l55 66l60 -52l32 39l-57 33l39 39l41 -43l33 37l-39 18l39 56l47 -25l33 29l-47 24l47 58l59 -60l33 29l-49 35l63 65l45 -67l31 28l-31 43l39 47l51 -67 l33 29l-70 67l76 33l62 -59l24 20l-57 55l80 70l209 -166l-695 -578l-149 117zM834 1071v150l61 77l131 17l78 -35l43 -43l96 -88l123 -105l78 -104l112 -96l89 -139l-27 -105l-86 -78l-150 17l-69 53l35 51l43 -51l131 -19l61 62l8 78l-104 141l-182 156l-78 104l-158 141 l-104 25l-62 -25l-35 -71v-78l35 -113l-35 -35zM1356 1133l342 262l147 131l-61 69l53 43l182 -192l-51 -62l-70 72l-114 -72l-217 -190l-166 -115z" />
<glyph unicode="&#xc6;" horiz-adv-x="2531" d="M0 37l4 8l19 2l43 -4l49 -8l32 -4l33 -6v-5l13 25l139 8l184 17l113 71l43 148l26 168l72 129l-16 16l-23 -27l-35 -20l-24 12l-23 27l-22 14l-25 21l-22 33l-25 32l-10 27l-35 6l-6 33l12 41l29 39l41 47l51 33h59l41 -9l39 -24l35 -53l18 -41v-45l29 -48l-4 -8l72 86 l131 96l47 -12l57 29l88 80l51 59l35 53l-51 97l-27 77l-61 70l-18 62l34 14l-4 16l-6 15l-6 14l-8 10l-19 8l-22 11l-23 4l-12 4l-4 8l2 6l12 4l19 -4l4 2l-6 15l-13 22l-6 12l-10 25l-6 16v8l6 7l8 -4l8 -7l2 -14l9 -22l8 -19l10 -16l14 -4l-10 18l-6 18l-4 25l-2 29v14 l6 10l10 4l8 -4l-2 -14v-31l7 -41l12 -20l10 -4l-10 18l-4 23v32l2 19l4 10l6 2l8 -8l-4 -25v-20l6 -27l4 -12v12l4 21v12v8l5 4l8 -4l2 -10v-18l-2 -13v-10l12 -10l10 -6l13 -15l2 -22l8 -19v-12v-8l4 -12l16 8l35 -70l70 -96l96 -123l16 -78l-43 -131l-139 -201l-35 -88 l62 -61l86 -70l96 -61l150 -35l69 -8l35 -70l8 -53l115 10l139 17l131 18l70 8h96l61 -26l78 -113v-70l-34 -53l61 -8l16 -45l-43 -17l-78 -18h-88l-43 18l17 27l-27 16l35 54l8 18l-24 17l-340 -54l-80 -8l-86 -27l24 -61l80 -96l62 -51l59 -62l53 -35l88 -8l70 27l27 -19 v27l34 8l43 -16l54 -11h59l53 -16l43 -45l-34 -25l-43 -26l-35 26l-54 9l-43 8l-18 -43l-43 -19l-61 -24l-113 -19l-193 62l-174 96l-123 86l-69 80l-53 -53l-9 61l-131 96l-139 70l-192 96l-156 17l-88 -140l-78 -77l-107 -43l-217 8l-139 8l-53 -8l4 28l-6 -2l-25 -6 l-16 -2l-25 -6l-10 2l2 8l12 4l4 5l13 6l-23 4l-16 -6l-10 -4h-13l-2 4l4 6l17 2l16 4l-14 2h-25l-12 -2l-10 2l6 8l4 2l2 2l12 2l-24 2h-15l-8 4l-4 7l8 4l11 2h-15z" />
<glyph unicode="&#xc8;" d="M0 -338l10 23l21 53l10 55l8 41l2 -100l21 -58l14 -41l-25 -45l-30 4l-31 23v45zM57 -106l523 454l-35 25zM512 516l55 66l60 -52l32 39l-57 33l39 39l41 -43l33 37l-39 18l39 56l47 -25l33 29l-47 24l47 58l59 -60l33 29l-49 35l63 65l45 -67l31 28l-31 43l39 47l51 -67 l33 29l-70 67l76 33l62 -59l24 20l-57 55l80 70l209 -166l-695 -578l-149 117zM834 1071v150l61 77l131 17l78 -35l43 -43l96 -88l123 -105l78 -104l112 -96l89 -139l-27 -105l-86 -78l-150 17l-69 53l35 51l43 -51l131 -19l61 62l8 78l-104 141l-182 156l-78 104l-158 141 l-104 25l-62 -25l-35 -71v-78l35 -113l-35 -35zM1356 1133l342 262l147 131l-61 69l53 43l182 -192l-51 -62l-70 72l-114 -72l-217 -190l-166 -115z" />
<glyph unicode="&#xca;" horiz-adv-x="837" />
<glyph unicode="&#xd3;" horiz-adv-x="2826" d="M-4 799l606 -262q14 -51 57 -96.5t89.5 -78t81.5 -50.5l34 -19l38 -15q38 -16 96.5 -30.5t131 -17.5t142.5 22l284 -129l52 -195l-1532 576zM31 831l1394 580l33 -16zM168 813q0 16 23.5 28.5t58.5 12.5t59.5 -12.5t24.5 -28.5t-24.5 -28.5t-59.5 -12.5t-58.5 12.5 t-23.5 28.5zM250 813l16 66zM375 893q0 18 26.5 30.5t63.5 12.5q35 0 61.5 -12.5t26.5 -30.5t-26.5 -31.5t-61.5 -13.5q-37 0 -63.5 13t-26.5 32zM465 893l6 -68zM592 632.5q18 -100.5 97 -177t210 -123.5t303 -51.5t343 34.5t318.5 110t259 169t165.5 211q2 6 6 14 l-365 -135l-141 -27v-20l-88 -10l-14 67l102 17l8 -23l111 27l358 151l62 -71l198 106l-110 131l-88 -74q2 63 -23 127l453 -180l-461 195q-57 117 -208 191.5t-374 80.5h-63l-111 47l-41 -16l86 -33q-158 -12 -308.5 -56t-279.5 -114t-225 -160t-145 -192 q-53 -115 -35 -215.5zM1200 834q16 35 51 64.5t80 52t98.5 34.5t106.5 10t94 -16t65.5 -37.5t30 -55.5t-11 -67t-51.5 -64.5t-80 -52t-98 -35t-107 -10.5q-106 4 -158.5 54.5t-19.5 122.5zM1362 794.5q-8 14.5 2 33t39 32.5q27 14 48.5 20.5t47.5 -8.5q29 -14 33 -35.5 t-33 -33.5q-18 -6 -38.5 -14.5t-39 -11.5t-35 0t-24.5 17.5zM1546 141l51 -196l1192 743l-6 213z" />
<glyph unicode="&#xd4;" horiz-adv-x="2826" d="M-4 799l606 -262q14 -51 57 -96.5t89.5 -78t81.5 -50.5l34 -19l38 -15q38 -16 96.5 -30.5t131 -17.5t142.5 22l284 -129l52 -195l-1532 576zM31 831l1394 580l33 -16zM168 813q0 16 23.5 28.5t58.5 12.5t59.5 -12.5t24.5 -28.5t-24.5 -28.5t-59.5 -12.5t-58.5 12.5 t-23.5 28.5zM250 813l16 66zM375 893q0 18 26.5 30.5t63.5 12.5q35 0 61.5 -12.5t26.5 -30.5t-26.5 -31.5t-61.5 -13.5q-37 0 -63.5 13t-26.5 32zM465 893l6 -68zM592 632.5q18 -100.5 97 -177t210 -123.5t303 -51.5t343 34.5t318.5 110t259 169t165.5 211q2 6 6 14 l-365 -135l-141 -27v-20l-88 -10l-14 67l102 17l8 -23l111 27l358 151l62 -71l198 106l-110 131l-88 -74q2 63 -23 127l453 -180l-461 195q-57 117 -208 191.5t-374 80.5h-63l-111 47l-41 -16l86 -33q-158 -12 -308.5 -56t-279.5 -114t-225 -160t-145 -192 q-53 -115 -35 -215.5zM1200 834q16 35 51 64.5t80 52t98.5 34.5t106.5 10t94 -16t65.5 -37.5t30 -55.5t-11 -67t-51.5 -64.5t-80 -52t-98 -35t-107 -10.5q-106 4 -158.5 54.5t-19.5 122.5zM1362 794.5q-8 14.5 2 33t39 32.5q27 14 48.5 20.5t47.5 -8.5q29 -14 33 -35.5 t-33 -33.5q-18 -6 -38.5 -14.5t-39 -11.5t-35 0t-24.5 17.5zM1546 141l51 -196l1192 743l-6 213z" />
<glyph unicode="&#xd5;" horiz-adv-x="2826" d="M-4 799l606 -262q14 -51 57 -96.5t89.5 -78t81.5 -50.5l34 -19l38 -15q38 -16 96.5 -30.5t131 -17.5t142.5 22l284 -129l52 -195l-1532 576zM31 831l1394 580l33 -16zM168 813q0 16 23.5 28.5t58.5 12.5t59.5 -12.5t24.5 -28.5t-24.5 -28.5t-59.5 -12.5t-58.5 12.5 t-23.5 28.5zM250 813l16 66zM375 893q0 18 26.5 30.5t63.5 12.5q35 0 61.5 -12.5t26.5 -30.5t-26.5 -31.5t-61.5 -13.5q-37 0 -63.5 13t-26.5 32zM465 893l6 -68zM592 632.5q18 -100.5 97 -177t210 -123.5t303 -51.5t343 34.5t318.5 110t259 169t165.5 211q2 6 6 14 l-365 -135l-141 -27v-20l-88 -10l-14 67l102 17l8 -23l111 27l358 151l62 -71l198 106l-110 131l-88 -74q2 63 -23 127l453 -180l-461 195q-57 117 -208 191.5t-374 80.5h-63l-111 47l-41 -16l86 -33q-158 -12 -308.5 -56t-279.5 -114t-225 -160t-145 -192 q-53 -115 -35 -215.5zM1200 834q16 35 51 64.5t80 52t98.5 34.5t106.5 10t94 -16t65.5 -37.5t30 -55.5t-11 -67t-51.5 -64.5t-80 -52t-98 -35t-107 -10.5q-106 4 -158.5 54.5t-19.5 122.5zM1362 794.5q-8 14.5 2 33t39 32.5q27 14 48.5 20.5t47.5 -8.5q29 -14 33 -35.5 t-33 -33.5q-18 -6 -38.5 -14.5t-39 -11.5t-35 0t-24.5 17.5zM1546 141l51 -196l1192 743l-6 213z" />
<glyph unicode="&#xd6;" horiz-adv-x="2826" d="M-4 799l606 -262q14 -51 57 -96.5t89.5 -78t81.5 -50.5l34 -19l38 -15q38 -16 96.5 -30.5t131 -17.5t142.5 22l284 -129l52 -195l-1532 576zM31 831l1394 580l33 -16zM168 813q0 16 23.5 28.5t58.5 12.5t59.5 -12.5t24.5 -28.5t-24.5 -28.5t-59.5 -12.5t-58.5 12.5 t-23.5 28.5zM250 813l16 66zM375 893q0 18 26.5 30.5t63.5 12.5q35 0 61.5 -12.5t26.5 -30.5t-26.5 -31.5t-61.5 -13.5q-37 0 -63.5 13t-26.5 32zM465 893l6 -68zM592 632.5q18 -100.5 97 -177t210 -123.5t303 -51.5t343 34.5t318.5 110t259 169t165.5 211q2 6 6 14 l-365 -135l-141 -27v-20l-88 -10l-14 67l102 17l8 -23l111 27l358 151l62 -71l198 106l-110 131l-88 -74q2 63 -23 127l453 -180l-461 195q-57 117 -208 191.5t-374 80.5h-63l-111 47l-41 -16l86 -33q-158 -12 -308.5 -56t-279.5 -114t-225 -160t-145 -192 q-53 -115 -35 -215.5zM1200 834q16 35 51 64.5t80 52t98.5 34.5t106.5 10t94 -16t65.5 -37.5t30 -55.5t-11 -67t-51.5 -64.5t-80 -52t-98 -35t-107 -10.5q-106 4 -158.5 54.5t-19.5 122.5zM1362 794.5q-8 14.5 2 33t39 32.5q27 14 48.5 20.5t47.5 -8.5q29 -14 33 -35.5 t-33 -33.5q-18 -6 -38.5 -14.5t-39 -11.5t-35 0t-24.5 17.5zM1546 141l51 -196l1192 743l-6 213z" />
<glyph unicode="&#xd7;" horiz-adv-x="2531" d="M0 37l4 8l19 2l43 -4l49 -8l32 -4l33 -6v-5l13 25l139 8l184 17l113 71l43 148l26 168l72 129l-16 16l-23 -27l-35 -20l-24 12l-23 27l-22 14l-25 21l-22 33l-25 32l-10 27l-35 6l-6 33l12 41l29 39l41 47l51 33h59l41 -9l39 -24l35 -53l18 -41v-45l29 -48l-4 -8l72 86 l131 96l47 -12l57 29l88 80l51 59l35 53l-51 97l-27 77l-61 70l-18 62l34 14l-4 16l-6 15l-6 14l-8 10l-19 8l-22 11l-23 4l-12 4l-4 8l2 6l12 4l19 -4l4 2l-6 15l-13 22l-6 12l-10 25l-6 16v8l6 7l8 -4l8 -7l2 -14l9 -22l8 -19l10 -16l14 -4l-10 18l-6 18l-4 25l-2 29v14 l6 10l10 4l8 -4l-2 -14v-31l7 -41l12 -20l10 -4l-10 18l-4 23v32l2 19l4 10l6 2l8 -8l-4 -25v-20l6 -27l4 -12v12l4 21v12v8l5 4l8 -4l2 -10v-18l-2 -13v-10l12 -10l10 -6l13 -15l2 -22l8 -19v-12v-8l4 -12l16 8l35 -70l70 -96l96 -123l16 -78l-43 -131l-139 -201l-35 -88 l62 -61l86 -70l96 -61l150 -35l69 -8l35 -70l8 -53l115 10l139 17l131 18l70 8h96l61 -26l78 -113v-70l-34 -53l61 -8l16 -45l-43 -17l-78 -18h-88l-43 18l17 27l-27 16l35 54l8 18l-24 17l-340 -54l-80 -8l-86 -27l24 -61l80 -96l62 -51l59 -62l53 -35l88 -8l70 27l27 -19 v27l34 8l43 -16l54 -11h59l53 -16l43 -45l-34 -25l-43 -26l-35 26l-54 9l-43 8l-18 -43l-43 -19l-61 -24l-113 -19l-193 62l-174 96l-123 86l-69 80l-53 -53l-9 61l-131 96l-139 70l-192 96l-156 17l-88 -140l-78 -77l-107 -43l-217 8l-139 8l-53 -8l4 28l-6 -2l-25 -6 l-16 -2l-25 -6l-10 2l2 8l12 4l4 5l13 6l-23 4l-16 -6l-10 -4h-13l-2 4l4 6l17 2l16 4l-14 2h-25l-12 -2l-10 2l6 8l4 2l2 2l12 2l-24 2h-15l-8 4l-4 7l8 4l11 2h-15z" />
<glyph unicode="&#xd8;" horiz-adv-x="2826" d="M-4 799l606 -262q14 -51 57 -96.5t89.5 -78t81.5 -50.5l34 -19l38 -15q38 -16 96.5 -30.5t131 -17.5t142.5 22l284 -129l52 -195l-1532 576zM31 831l1394 580l33 -16zM168 813q0 16 23.5 28.5t58.5 12.5t59.5 -12.5t24.5 -28.5t-24.5 -28.5t-59.5 -12.5t-58.5 12.5 t-23.5 28.5zM250 813l16 66zM375 893q0 18 26.5 30.5t63.5 12.5q35 0 61.5 -12.5t26.5 -30.5t-26.5 -31.5t-61.5 -13.5q-37 0 -63.5 13t-26.5 32zM465 893l6 -68zM592 632.5q18 -100.5 97 -177t210 -123.5t303 -51.5t343 34.5t318.5 110t259 169t165.5 211q2 6 6 14 l-365 -135l-141 -27v-20l-88 -10l-14 67l102 17l8 -23l111 27l358 151l62 -71l198 106l-110 131l-88 -74q2 63 -23 127l453 -180l-461 195q-57 117 -208 191.5t-374 80.5h-63l-111 47l-41 -16l86 -33q-158 -12 -308.5 -56t-279.5 -114t-225 -160t-145 -192 q-53 -115 -35 -215.5zM1200 834q16 35 51 64.5t80 52t98.5 34.5t106.5 10t94 -16t65.5 -37.5t30 -55.5t-11 -67t-51.5 -64.5t-80 -52t-98 -35t-107 -10.5q-106 4 -158.5 54.5t-19.5 122.5zM1362 794.5q-8 14.5 2 33t39 32.5q27 14 48.5 20.5t47.5 -8.5q29 -14 33 -35.5 t-33 -33.5q-18 -6 -38.5 -14.5t-39 -11.5t-35 0t-24.5 17.5zM1546 141l51 -196l1192 743l-6 213z" />
<glyph unicode="&#xd9;" horiz-adv-x="2826" d="M-4 799l606 -262q14 -51 57 -96.5t89.5 -78t81.5 -50.5l34 -19l38 -15q38 -16 96.5 -30.5t131 -17.5t142.5 22l284 -129l52 -195l-1532 576zM31 831l1394 580l33 -16zM168 813q0 16 23.5 28.5t58.5 12.5t59.5 -12.5t24.5 -28.5t-24.5 -28.5t-59.5 -12.5t-58.5 12.5 t-23.5 28.5zM250 813l16 66zM375 893q0 18 26.5 30.5t63.5 12.5q35 0 61.5 -12.5t26.5 -30.5t-26.5 -31.5t-61.5 -13.5q-37 0 -63.5 13t-26.5 32zM465 893l6 -68zM592 632.5q18 -100.5 97 -177t210 -123.5t303 -51.5t343 34.5t318.5 110t259 169t165.5 211q2 6 6 14 l-365 -135l-141 -27v-20l-88 -10l-14 67l102 17l8 -23l111 27l358 151l62 -71l198 106l-110 131l-88 -74q2 63 -23 127l453 -180l-461 195q-57 117 -208 191.5t-374 80.5h-63l-111 47l-41 -16l86 -33q-158 -12 -308.5 -56t-279.5 -114t-225 -160t-145 -192 q-53 -115 -35 -215.5zM1200 834q16 35 51 64.5t80 52t98.5 34.5t106.5 10t94 -16t65.5 -37.5t30 -55.5t-11 -67t-51.5 -64.5t-80 -52t-98 -35t-107 -10.5q-106 4 -158.5 54.5t-19.5 122.5zM1362 794.5q-8 14.5 2 33t39 32.5q27 14 48.5 20.5t47.5 -8.5q29 -14 33 -35.5 t-33 -33.5q-18 -6 -38.5 -14.5t-39 -11.5t-35 0t-24.5 17.5zM1546 141l51 -196l1192 743l-6 213z" />
<glyph unicode="&#xdb;" horiz-adv-x="2826" d="M-4 799l606 -262q14 -51 57 -96.5t89.5 -78t81.5 -50.5l34 -19l38 -15q38 -16 96.5 -30.5t131 -17.5t142.5 22l284 -129l52 -195l-1532 576zM31 831l1394 580l33 -16zM168 813q0 16 23.5 28.5t58.5 12.5t59.5 -12.5t24.5 -28.5t-24.5 -28.5t-59.5 -12.5t-58.5 12.5 t-23.5 28.5zM250 813l16 66zM375 893q0 18 26.5 30.5t63.5 12.5q35 0 61.5 -12.5t26.5 -30.5t-26.5 -31.5t-61.5 -13.5q-37 0 -63.5 13t-26.5 32zM465 893l6 -68zM592 632.5q18 -100.5 97 -177t210 -123.5t303 -51.5t343 34.5t318.5 110t259 169t165.5 211q2 6 6 14 l-365 -135l-141 -27v-20l-88 -10l-14 67l102 17l8 -23l111 27l358 151l62 -71l198 106l-110 131l-88 -74q2 63 -23 127l453 -180l-461 195q-57 117 -208 191.5t-374 80.5h-63l-111 47l-41 -16l86 -33q-158 -12 -308.5 -56t-279.5 -114t-225 -160t-145 -192 q-53 -115 -35 -215.5zM1200 834q16 35 51 64.5t80 52t98.5 34.5t106.5 10t94 -16t65.5 -37.5t30 -55.5t-11 -67t-51.5 -64.5t-80 -52t-98 -35t-107 -10.5q-106 4 -158.5 54.5t-19.5 122.5zM1362 794.5q-8 14.5 2 33t39 32.5q27 14 48.5 20.5t47.5 -8.5q29 -14 33 -35.5 t-33 -33.5q-18 -6 -38.5 -14.5t-39 -11.5t-35 0t-24.5 17.5zM1546 141l51 -196l1192 743l-6 213z" />
<glyph unicode="&#xe4;" d="M0 -338l10 23l21 53l10 55l8 41l2 -100l21 -58l14 -41l-25 -45l-30 4l-31 23v45zM57 -106l523 454l-35 25zM512 516l55 66l60 -52l32 39l-57 33l39 39l41 -43l33 37l-39 18l39 56l47 -25l33 29l-47 24l47 58l59 -60l33 29l-49 35l63 65l45 -67l31 28l-31 43l39 47l51 -67 l33 29l-70 67l76 33l62 -59l24 20l-57 55l80 70l209 -166l-695 -578l-149 117zM834 1071v150l61 77l131 17l78 -35l43 -43l96 -88l123 -105l78 -104l112 -96l89 -139l-27 -105l-86 -78l-150 17l-69 53l35 51l43 -51l131 -19l61 62l8 78l-104 141l-182 156l-78 104l-158 141 l-104 25l-62 -25l-35 -71v-78l35 -113l-35 -35zM1356 1133l342 262l147 131l-61 69l53 43l182 -192l-51 -62l-70 72l-114 -72l-217 -190l-166 -115z" />
<glyph unicode="&#xe6;" horiz-adv-x="2531" d="M0 37l4 8l19 2l43 -4l49 -8l32 -4l33 -6v-5l13 25l139 8l184 17l113 71l43 148l26 168l72 129l-16 16l-23 -27l-35 -20l-24 12l-23 27l-22 14l-25 21l-22 33l-25 32l-10 27l-35 6l-6 33l12 41l29 39l41 47l51 33h59l41 -9l39 -24l35 -53l18 -41v-45l29 -48l-4 -8l72 86 l131 96l47 -12l57 29l88 80l51 59l35 53l-51 97l-27 77l-61 70l-18 62l34 14l-4 16l-6 15l-6 14l-8 10l-19 8l-22 11l-23 4l-12 4l-4 8l2 6l12 4l19 -4l4 2l-6 15l-13 22l-6 12l-10 25l-6 16v8l6 7l8 -4l8 -7l2 -14l9 -22l8 -19l10 -16l14 -4l-10 18l-6 18l-4 25l-2 29v14 l6 10l10 4l8 -4l-2 -14v-31l7 -41l12 -20l10 -4l-10 18l-4 23v32l2 19l4 10l6 2l8 -8l-4 -25v-20l6 -27l4 -12v12l4 21v12v8l5 4l8 -4l2 -10v-18l-2 -13v-10l12 -10l10 -6l13 -15l2 -22l8 -19v-12v-8l4 -12l16 8l35 -70l70 -96l96 -123l16 -78l-43 -131l-139 -201l-35 -88 l62 -61l86 -70l96 -61l150 -35l69 -8l35 -70l8 -53l115 10l139 17l131 18l70 8h96l61 -26l78 -113v-70l-34 -53l61 -8l16 -45l-43 -17l-78 -18h-88l-43 18l17 27l-27 16l35 54l8 18l-24 17l-340 -54l-80 -8l-86 -27l24 -61l80 -96l62 -51l59 -62l53 -35l88 -8l70 27l27 -19 v27l34 8l43 -16l54 -11h59l53 -16l43 -45l-34 -25l-43 -26l-35 26l-54 9l-43 8l-18 -43l-43 -19l-61 -24l-113 -19l-193 62l-174 96l-123 86l-69 80l-53 -53l-9 61l-131 96l-139 70l-192 96l-156 17l-88 -140l-78 -77l-107 -43l-217 8l-139 8l-53 -8l4 28l-6 -2l-25 -6 l-16 -2l-25 -6l-10 2l2 8l12 4l4 5l13 6l-23 4l-16 -6l-10 -4h-13l-2 4l4 6l17 2l16 4l-14 2h-25l-12 -2l-10 2l6 8l4 2l2 2l12 2l-24 2h-15l-8 4l-4 7l8 4l11 2h-15z" />
<glyph unicode="&#xe7;" horiz-adv-x="2531" d="M0 37l4 8l19 2l43 -4l49 -8l32 -4l33 -6v-5l13 25l139 8l184 17l113 71l43 148l26 168l72 129l-16 16l-23 -27l-35 -20l-24 12l-23 27l-22 14l-25 21l-22 33l-25 32l-10 27l-35 6l-6 33l12 41l29 39l41 47l51 33h59l41 -9l39 -24l35 -53l18 -41v-45l29 -48l-4 -8l72 86 l131 96l47 -12l57 29l88 80l51 59l35 53l-51 97l-27 77l-61 70l-18 62l34 14l-4 16l-6 15l-6 14l-8 10l-19 8l-22 11l-23 4l-12 4l-4 8l2 6l12 4l19 -4l4 2l-6 15l-13 22l-6 12l-10 25l-6 16v8l6 7l8 -4l8 -7l2 -14l9 -22l8 -19l10 -16l14 -4l-10 18l-6 18l-4 25l-2 29v14 l6 10l10 4l8 -4l-2 -14v-31l7 -41l12 -20l10 -4l-10 18l-4 23v32l2 19l4 10l6 2l8 -8l-4 -25v-20l6 -27l4 -12v12l4 21v12v8l5 4l8 -4l2 -10v-18l-2 -13v-10l12 -10l10 -6l13 -15l2 -22l8 -19v-12v-8l4 -12l16 8l35 -70l70 -96l96 -123l16 -78l-43 -131l-139 -201l-35 -88 l62 -61l86 -70l96 -61l150 -35l69 -8l35 -70l8 -53l115 10l139 17l131 18l70 8h96l61 -26l78 -113v-70l-34 -53l61 -8l16 -45l-43 -17l-78 -18h-88l-43 18l17 27l-27 16l35 54l8 18l-24 17l-340 -54l-80 -8l-86 -27l24 -61l80 -96l62 -51l59 -62l53 -35l88 -8l70 27l27 -19 v27l34 8l43 -16l54 -11h59l53 -16l43 -45l-34 -25l-43 -26l-35 26l-54 9l-43 8l-18 -43l-43 -19l-61 -24l-113 -19l-193 62l-174 96l-123 86l-69 80l-53 -53l-9 61l-131 96l-139 70l-192 96l-156 17l-88 -140l-78 -77l-107 -43l-217 8l-139 8l-53 -8l4 28l-6 -2l-25 -6 l-16 -2l-25 -6l-10 2l2 8l12 4l4 5l13 6l-23 4l-16 -6l-10 -4h-13l-2 4l4 6l17 2l16 4l-14 2h-25l-12 -2l-10 2l6 8l4 2l2 2l12 2l-24 2h-15l-8 4l-4 7l8 4l11 2h-15z" />
<glyph unicode="&#xf1;" horiz-adv-x="4173" d="M0 721l8 49l303 -25l279 82l237 33l418 33l352 123l230 155l950 -41l98 -106l33 -172l-90 -25h-172v41h164l65 17l-24 139l-98 90l-893 33l-246 -164l-352 -123l-418 -49l-246 -25l-279 -81zM27 -150v-260l850 201l528 96l229 23l207 -141l242 -37l252 -23l92 129l70 49 l69 117l68 72l92 106l115 178l-11 107l58 12l45 82v107l-92 94l-150 47l-102 -23l-58 -47l11 -131l127 -35l69 -36l92 -70l-12 -59l-47 34l-80 37l-57 47l-92 82l-183 47l-92 -47l-12 -94l104 -72l207 -106l80 -129l-104 94l-103 59l-127 70l-241 49l-58 -106l185 -109 l172 -129l12 -166l-47 82l-80 144l-57 69l-173 60l-47 36l-67 -84l67 -81l117 -95l68 -106l-41 31l-350 63l-80 12l-195 82l-115 35l-196 -47zM1772 1438v69l139 -10l67 10l58 25l-58 -119zM1806 1200l35 60h80l127 71l-70 23l58 178l92 24l620 -83l13 -82l286 -60l23 47 l999 -143l-22 -141l-35 -154l-309 59l-23 -34l-528 69l-35 -47l-47 -141l-57 -84l-115 -23l-23 35l103 25l92 47v166l-125 47l-92 82l-621 37zM2118 1604l57 34l872 -141l885 -106v47l137 -107v-96l-999 143l-322 95zM2761 1354v37l274 -25l12 -35zM4037 999l32 236l105 -10 l-35 -131l-12 -95h-90z" />
<glyph unicode="&#xf2;" horiz-adv-x="4173" d="M0 721l8 49l303 -25l279 82l237 33l418 33l352 123l230 155l950 -41l98 -106l33 -172l-90 -25h-172v41h164l65 17l-24 139l-98 90l-893 33l-246 -164l-352 -123l-418 -49l-246 -25l-279 -81zM27 -150v-260l850 201l528 96l229 23l207 -141l242 -37l252 -23l92 129l70 49 l69 117l68 72l92 106l115 178l-11 107l58 12l45 82v107l-92 94l-150 47l-102 -23l-58 -47l11 -131l127 -35l69 -36l92 -70l-12 -59l-47 34l-80 37l-57 47l-92 82l-183 47l-92 -47l-12 -94l104 -72l207 -106l80 -129l-104 94l-103 59l-127 70l-241 49l-58 -106l185 -109 l172 -129l12 -166l-47 82l-80 144l-57 69l-173 60l-47 36l-67 -84l67 -81l117 -95l68 -106l-41 31l-350 63l-80 12l-195 82l-115 35l-196 -47zM1772 1438v69l139 -10l67 10l58 25l-58 -119zM1806 1200l35 60h80l127 71l-70 23l58 178l92 24l620 -83l13 -82l286 -60l23 47 l999 -143l-22 -141l-35 -154l-309 59l-23 -34l-528 69l-35 -47l-47 -141l-57 -84l-115 -23l-23 35l103 25l92 47v166l-125 47l-92 82l-621 37zM2118 1604l57 34l872 -141l885 -106v47l137 -107v-96l-999 143l-322 95zM2761 1354v37l274 -25l12 -35zM4037 999l32 236l105 -10 l-35 -131l-12 -95h-90z" />
<glyph unicode="&#xf3;" horiz-adv-x="4173" d="M0 721l8 49l303 -25l279 82l237 33l418 33l352 123l230 155l950 -41l98 -106l33 -172l-90 -25h-172v41h164l65 17l-24 139l-98 90l-893 33l-246 -164l-352 -123l-418 -49l-246 -25l-279 -81zM27 -150v-260l850 201l528 96l229 23l207 -141l242 -37l252 -23l92 129l70 49 l69 117l68 72l92 106l115 178l-11 107l58 12l45 82v107l-92 94l-150 47l-102 -23l-58 -47l11 -131l127 -35l69 -36l92 -70l-12 -59l-47 34l-80 37l-57 47l-92 82l-183 47l-92 -47l-12 -94l104 -72l207 -106l80 -129l-104 94l-103 59l-127 70l-241 49l-58 -106l185 -109 l172 -129l12 -166l-47 82l-80 144l-57 69l-173 60l-47 36l-67 -84l67 -81l117 -95l68 -106l-41 31l-350 63l-80 12l-195 82l-115 35l-196 -47zM1772 1438v69l139 -10l67 10l58 25l-58 -119zM1806 1200l35 60h80l127 71l-70 23l58 178l92 24l620 -83l13 -82l286 -60l23 47 l999 -143l-22 -141l-35 -154l-309 59l-23 -34l-528 69l-35 -47l-47 -141l-57 -84l-115 -23l-23 35l103 25l92 47v166l-125 47l-92 82l-621 37zM2118 1604l57 34l872 -141l885 -106v47l137 -107v-96l-999 143l-322 95zM2761 1354v37l274 -25l12 -35zM4037 999l32 236l105 -10 l-35 -131l-12 -95h-90z" />
<glyph unicode="&#xf4;" horiz-adv-x="4173" d="M0 721l8 49l303 -25l279 82l237 33l418 33l352 123l230 155l950 -41l98 -106l33 -172l-90 -25h-172v41h164l65 17l-24 139l-98 90l-893 33l-246 -164l-352 -123l-418 -49l-246 -25l-279 -81zM27 -150v-260l850 201l528 96l229 23l207 -141l242 -37l252 -23l92 129l70 49 l69 117l68 72l92 106l115 178l-11 107l58 12l45 82v107l-92 94l-150 47l-102 -23l-58 -47l11 -131l127 -35l69 -36l92 -70l-12 -59l-47 34l-80 37l-57 47l-92 82l-183 47l-92 -47l-12 -94l104 -72l207 -106l80 -129l-104 94l-103 59l-127 70l-241 49l-58 -106l185 -109 l172 -129l12 -166l-47 82l-80 144l-57 69l-173 60l-47 36l-67 -84l67 -81l117 -95l68 -106l-41 31l-350 63l-80 12l-195 82l-115 35l-196 -47zM1772 1438v69l139 -10l67 10l58 25l-58 -119zM1806 1200l35 60h80l127 71l-70 23l58 178l92 24l620 -83l13 -82l286 -60l23 47 l999 -143l-22 -141l-35 -154l-309 59l-23 -34l-528 69l-35 -47l-47 -141l-57 -84l-115 -23l-23 35l103 25l92 47v166l-125 47l-92 82l-621 37zM2118 1604l57 34l872 -141l885 -106v47l137 -107v-96l-999 143l-322 95zM2761 1354v37l274 -25l12 -35zM4037 999l32 236l105 -10 l-35 -131l-12 -95h-90z" />
<glyph unicode="&#x2c6;" horiz-adv-x="1896" d="M0 106l223 869q31 119 109 224.5t189.5 187t250.5 132t293 58.5v-719q-68 -20 -121 -58t-91 -89.5t-57.5 -113.5t-19.5 -130q0 -86 32 -161t89 -130t136 -87t173 -32t169 32t127 87t80 130t28 161q0 133 -59.5 238.5t-190.5 148.5v690q117 -35 215 -96.5t170 -138 t111.5 -163.5t39.5 -171v-1176l-4 -33q-4 -32 -25.5 -71t-67.5 -72t-132 -33h-1231q-80 0 -123 33t-63.5 72t-23.5 71l-3 33v256zM496 842q0 -35 27.5 -60.5t66.5 -25.5q41 0 68.5 25.5t27.5 60.5q0 37 -27.5 62.5t-68.5 25.5q-39 0 -66.5 -25.5t-27.5 -62.5zM823 473 q0 -78 29 -144.5t80 -116.5t117.5 -79t144.5 -29q76 0 143.5 29t117.5 79t79 116.5t29 144.5q0 121 -68 214t-174 132v819h-213v-804q-61 -14 -113.5 -48t-90.5 -82.5t-59.5 -106.5t-21.5 -124z" />
<glyph unicode="&#x2000;" horiz-adv-x="832" />
<glyph unicode="&#x2001;" horiz-adv-x="1665" />
<glyph unicode="&#x2002;" horiz-adv-x="832" />
<glyph unicode="&#x2003;" horiz-adv-x="1665" />
<glyph unicode="&#x2004;" horiz-adv-x="555" />
<glyph unicode="&#x2005;" horiz-adv-x="416" />
<glyph unicode="&#x2006;" horiz-adv-x="277" />
<glyph unicode="&#x2007;" horiz-adv-x="277" />
<glyph unicode="&#x2008;" horiz-adv-x="208" />
<glyph unicode="&#x2009;" horiz-adv-x="333" />
<glyph unicode="&#x200a;" horiz-adv-x="92" />
<glyph unicode="&#x2010;" d="M0 -338l10 23l21 53l10 55l8 41l2 -100l21 -58l14 -41l-25 -45l-30 4l-31 23v45zM57 -106l523 454l-35 25zM512 516l55 66l60 -52l32 39l-57 33l39 39l41 -43l33 37l-39 18l39 56l47 -25l33 29l-47 24l47 58l59 -60l33 29l-49 35l63 65l45 -67l31 28l-31 43l39 47l51 -67 l33 29l-70 67l76 33l62 -59l24 20l-57 55l80 70l209 -166l-695 -578l-149 117zM834 1071v150l61 77l131 17l78 -35l43 -43l96 -88l123 -105l78 -104l112 -96l89 -139l-27 -105l-86 -78l-150 17l-69 53l35 51l43 -51l131 -19l61 62l8 78l-104 141l-182 156l-78 104l-158 141 l-104 25l-62 -25l-35 -71v-78l35 -113l-35 -35zM1356 1133l342 262l147 131l-61 69l53 43l182 -192l-51 -62l-70 72l-114 -72l-217 -190l-166 -115z" />
<glyph unicode="&#x2011;" d="M0 -338l10 23l21 53l10 55l8 41l2 -100l21 -58l14 -41l-25 -45l-30 4l-31 23v45zM57 -106l523 454l-35 25zM512 516l55 66l60 -52l32 39l-57 33l39 39l41 -43l33 37l-39 18l39 56l47 -25l33 29l-47 24l47 58l59 -60l33 29l-49 35l63 65l45 -67l31 28l-31 43l39 47l51 -67 l33 29l-70 67l76 33l62 -59l24 20l-57 55l80 70l209 -166l-695 -578l-149 117zM834 1071v150l61 77l131 17l78 -35l43 -43l96 -88l123 -105l78 -104l112 -96l89 -139l-27 -105l-86 -78l-150 17l-69 53l35 51l43 -51l131 -19l61 62l8 78l-104 141l-182 156l-78 104l-158 141 l-104 25l-62 -25l-35 -71v-78l35 -113l-35 -35zM1356 1133l342 262l147 131l-61 69l53 43l182 -192l-51 -62l-70 72l-114 -72l-217 -190l-166 -115z" />
<glyph unicode="&#x2012;" d="M0 -338l10 23l21 53l10 55l8 41l2 -100l21 -58l14 -41l-25 -45l-30 4l-31 23v45zM57 -106l523 454l-35 25zM512 516l55 66l60 -52l32 39l-57 33l39 39l41 -43l33 37l-39 18l39 56l47 -25l33 29l-47 24l47 58l59 -60l33 29l-49 35l63 65l45 -67l31 28l-31 43l39 47l51 -67 l33 29l-70 67l76 33l62 -59l24 20l-57 55l80 70l209 -166l-695 -578l-149 117zM834 1071v150l61 77l131 17l78 -35l43 -43l96 -88l123 -105l78 -104l112 -96l89 -139l-27 -105l-86 -78l-150 17l-69 53l35 51l43 -51l131 -19l61 62l8 78l-104 141l-182 156l-78 104l-158 141 l-104 25l-62 -25l-35 -71v-78l35 -113l-35 -35zM1356 1133l342 262l147 131l-61 69l53 43l182 -192l-51 -62l-70 72l-114 -72l-217 -190l-166 -115z" />
<glyph unicode="&#x2013;" horiz-adv-x="1024" d="M0 -338l5 23l11 53l5 55l4 41l1 -100l11 -58l7 -41l-13 -45l-15 4l-16 23v45zM29 -106l265 454l-18 25zM260 516l28 66l30 -52l16 39l-29 33l20 39l21 -43l17 37l-20 18l20 56l23 -25l17 29l-24 24l24 58l30 -60l17 29l-25 35l32 65l23 -67l16 28l-16 43l20 47l25 -67 l17 29l-35 67l38 33l32 -59l12 20l-29 55l41 70l106 -166l-353 -578l-76 117zM423 1071v150l31 77l66 17l40 -35l22 -43l48 -88l63 -105l39 -104l57 -96l45 -139l-13 -105l-44 -78l-76 17l-35 53l18 51l21 -51l67 -19l31 62l4 78l-53 141l-92 156l-40 104l-80 141l-53 25 l-31 -25l-18 -71v-78l18 -113l-18 -35zM688 1133l173 262l75 131l-31 69l27 43l92 -192l-26 -62l-35 72l-58 -72l-110 -190l-84 -115z" />
<glyph unicode="&#x2014;" horiz-adv-x="2048" d="M0 -338l10 23l21 53l11 55l8 41l2 -100l21 -58l14 -41l-25 -45l-31 4l-31 23v45zM58 -106l530 454l-35 25zM519 516l56 66l61 -52l32 39l-57 33l39 39l42 -43l33 37l-39 18l39 56l48 -25l33 29l-47 24l47 58l60 -60l34 29l-50 35l64 65l46 -67l31 28l-31 43l39 47l52 -67 l33 29l-71 67l77 33l63 -59l25 20l-58 55l81 70l212 -166l-705 -578l-151 117zM846 1071v150l62 77l133 17l79 -35l43 -43l98 -88l125 -105l79 -104l113 -96l91 -139l-28 -105l-87 -78l-152 17l-70 53l35 51l44 -51l133 -19l62 62l8 78l-106 141l-184 156l-79 104l-161 141 l-105 25l-63 -25l-36 -71v-78l36 -113l-36 -35zM1375 1133l347 262l150 131l-62 69l53 43l185 -192l-52 -62l-71 72l-115 -72l-220 -190l-169 -115z" />
<glyph unicode="&#x201a;" horiz-adv-x="2826" d="M-4 799l606 -262q14 -51 57 -96.5t89.5 -78t81.5 -50.5l34 -19l38 -15q38 -16 96.5 -30.5t131 -17.5t142.5 22l284 -129l52 -195l-1532 576zM31 831l1394 580l33 -16zM168 813q0 16 23.5 28.5t58.5 12.5t59.5 -12.5t24.5 -28.5t-24.5 -28.5t-59.5 -12.5t-58.5 12.5 t-23.5 28.5zM250 813l16 66zM375 893q0 18 26.5 30.5t63.5 12.5q35 0 61.5 -12.5t26.5 -30.5t-26.5 -31.5t-61.5 -13.5q-37 0 -63.5 13t-26.5 32zM465 893l6 -68zM592 632.5q18 -100.5 97 -177t210 -123.5t303 -51.5t343 34.5t318.5 110t259 169t165.5 211q2 6 6 14 l-365 -135l-141 -27v-20l-88 -10l-14 67l102 17l8 -23l111 27l358 151l62 -71l198 106l-110 131l-88 -74q2 63 -23 127l453 -180l-461 195q-57 117 -208 191.5t-374 80.5h-63l-111 47l-41 -16l86 -33q-158 -12 -308.5 -56t-279.5 -114t-225 -160t-145 -192 q-53 -115 -35 -215.5zM1200 834q16 35 51 64.5t80 52t98.5 34.5t106.5 10t94 -16t65.5 -37.5t30 -55.5t-11 -67t-51.5 -64.5t-80 -52t-98 -35t-107 -10.5q-106 4 -158.5 54.5t-19.5 122.5zM1362 794.5q-8 14.5 2 33t39 32.5q27 14 48.5 20.5t47.5 -8.5q29 -14 33 -35.5 t-33 -33.5q-18 -6 -38.5 -14.5t-39 -11.5t-35 0t-24.5 17.5zM1546 141l51 -196l1192 743l-6 213z" />
<glyph unicode="&#x201e;" d="M0 -338l10 23l21 53l10 55l8 41l2 -100l21 -58l14 -41l-25 -45l-30 4l-31 23v45zM57 -106l523 454l-35 25zM512 516l55 66l60 -52l32 39l-57 33l39 39l41 -43l33 37l-39 18l39 56l47 -25l33 29l-47 24l47 58l59 -60l33 29l-49 35l63 65l45 -67l31 28l-31 43l39 47l51 -67 l33 29l-70 67l76 33l62 -59l24 20l-57 55l80 70l209 -166l-695 -578l-149 117zM834 1071v150l61 77l131 17l78 -35l43 -43l96 -88l123 -105l78 -104l112 -96l89 -139l-27 -105l-86 -78l-150 17l-69 53l35 51l43 -51l131 -19l61 62l8 78l-104 141l-182 156l-78 104l-158 141 l-104 25l-62 -25l-35 -71v-78l35 -113l-35 -35zM1356 1133l342 262l147 131l-61 69l53 43l182 -192l-51 -62l-70 72l-114 -72l-217 -190l-166 -115z" />
<glyph unicode="&#x2022;" d="M0 -338l10 23l21 53l10 55l8 41l2 -100l21 -58l14 -41l-25 -45l-30 4l-31 23v45zM57 -106l523 454l-35 25zM512 516l55 66l60 -52l32 39l-57 33l39 39l41 -43l33 37l-39 18l39 56l47 -25l33 29l-47 24l47 58l59 -60l33 29l-49 35l63 65l45 -67l31 28l-31 43l39 47l51 -67 l33 29l-70 67l76 33l62 -59l24 20l-57 55l80 70l209 -166l-695 -578l-149 117zM834 1071v150l61 77l131 17l78 -35l43 -43l96 -88l123 -105l78 -104l112 -96l89 -139l-27 -105l-86 -78l-150 17l-69 53l35 51l43 -51l131 -19l61 62l8 78l-104 141l-182 156l-78 104l-158 141 l-104 25l-62 -25l-35 -71v-78l35 -113l-35 -35zM1356 1133l342 262l147 131l-61 69l53 43l182 -192l-51 -62l-70 72l-114 -72l-217 -190l-166 -115z" />
<glyph unicode="&#x2026;" d="M0 -338l10 23l21 53l10 55l8 41l2 -100l21 -58l14 -41l-25 -45l-30 4l-31 23v45zM57 -106l523 454l-35 25zM512 516l55 66l60 -52l32 39l-57 33l39 39l41 -43l33 37l-39 18l39 56l47 -25l33 29l-47 24l47 58l59 -60l33 29l-49 35l63 65l45 -67l31 28l-31 43l39 47l51 -67 l33 29l-70 67l76 33l62 -59l24 20l-57 55l80 70l209 -166l-695 -578l-149 117zM834 1071v150l61 77l131 17l78 -35l43 -43l96 -88l123 -105l78 -104l112 -96l89 -139l-27 -105l-86 -78l-150 17l-69 53l35 51l43 -51l131 -19l61 62l8 78l-104 141l-182 156l-78 104l-158 141 l-104 25l-62 -25l-35 -71v-78l35 -113l-35 -35zM1356 1133l342 262l147 131l-61 69l53 43l182 -192l-51 -62l-70 72l-114 -72l-217 -190l-166 -115z" />
<glyph unicode="&#x202f;" horiz-adv-x="333" />
<glyph unicode="&#x2039;" horiz-adv-x="1896" d="M0 106l223 869q31 119 109 224.5t189.5 187t250.5 132t293 58.5v-719q-68 -20 -121 -58t-91 -89.5t-57.5 -113.5t-19.5 -130q0 -86 32 -161t89 -130t136 -87t173 -32t169 32t127 87t80 130t28 161q0 133 -59.5 238.5t-190.5 148.5v690q117 -35 215 -96.5t170 -138 t111.5 -163.5t39.5 -171v-1176l-4 -33q-4 -32 -25.5 -71t-67.5 -72t-132 -33h-1231q-80 0 -123 33t-63.5 72t-23.5 71l-3 33v256zM496 842q0 -35 27.5 -60.5t66.5 -25.5q41 0 68.5 25.5t27.5 60.5q0 37 -27.5 62.5t-68.5 25.5q-39 0 -66.5 -25.5t-27.5 -62.5zM823 473 q0 -78 29 -144.5t80 -116.5t117.5 -79t144.5 -29q76 0 143.5 29t117.5 79t79 116.5t29 144.5q0 121 -68 214t-174 132v819h-213v-804q-61 -14 -113.5 -48t-90.5 -82.5t-59.5 -106.5t-21.5 -124z" />
<glyph unicode="&#x205f;" horiz-adv-x="416" />
<glyph unicode="&#x25fc;" horiz-adv-x="1638" d="M0 0v1638h1638v-1638h-1638z" />
</font>
</defs>
</svg>
